<?xml version="1.0" encoding="utf-8" standalone="no"?>
<!DOCTYPE svg PUBLIC "-//W3C//DTD SVG 1.1//EN"
  "http://www.w3.org/Graphics/SVG/1.1/DTD/svg11.dtd">
<svg xmlns:xlink="http://www.w3.org/1999/xlink" width="1288.380938pt" height="712.930076pt" viewBox="0 0 1288.380938 712.930076" xmlns="http://www.w3.org/2000/svg" version="1.1">
 <metadata>
  <rdf:RDF xmlns:dc="http://purl.org/dc/elements/1.1/" xmlns:cc="http://creativecommons.org/ns#" xmlns:rdf="http://www.w3.org/1999/02/22-rdf-syntax-ns#">
   <cc:Work>
    <dc:type rdf:resource="http://purl.org/dc/dcmitype/StillImage"/>
    <dc:date>2025-10-23T22:37:36.018089</dc:date>
    <dc:format>image/svg+xml</dc:format>
    <dc:creator>
     <cc:Agent>
      <dc:title>Matplotlib v3.10.6, https://matplotlib.org/</dc:title>
     </cc:Agent>
    </dc:creator>
   </cc:Work>
  </rdf:RDF>
 </metadata>
 <defs>
  <style type="text/css">*{stroke-linejoin: round; stroke-linecap: butt}</style>
 </defs>
 <g id="figure_1">
  <g id="patch_1">
   <path d="M 0 712.930076 
L 1288.380938 712.930076 
L 1288.380938 0 
L 0 0 
z
" style="fill: #ffffff"/>
  </g>
  <g id="axes_1">
   <g id="patch_2">
    <path d="M 48.020938 655.577983 
L 1281.180938 655.577983 
L 1281.180938 49.38 
L 48.020938 49.38 
z
" style="fill: #ffffff"/>
   </g>
   <g id="matplotlib.axis_1">
    <g id="xtick_1">
     <g id="line2d_1">
      <defs>
       <path id="mffbad2c7cd" d="M 0 0 
L 0 3.5 
" style="stroke: #000000; stroke-width: 0.8"/>
      </defs>
      <g>
       <use xlink:href="#mffbad2c7cd" x="150.784271" y="655.577983" style="stroke: #000000; stroke-width: 0.8"/>
      </g>
     </g>
     <g id="text_1">
      <!-- SQ - Corta -->
      <g transform="translate(99.444989 683.787992) rotate(-15) scale(0.11 -0.11)">
       <defs>
        <path id="ArialMT-53" d="M 288 1472 
L 859 1522 
Q 900 1178 1048 958 
Q 1197 738 1509 602 
Q 1822 466 2213 466 
Q 2559 466 2825 569 
Q 3091 672 3220 851 
Q 3350 1031 3350 1244 
Q 3350 1459 3225 1620 
Q 3100 1781 2813 1891 
Q 2628 1963 1997 2114 
Q 1366 2266 1113 2400 
Q 784 2572 623 2826 
Q 463 3081 463 3397 
Q 463 3744 659 4045 
Q 856 4347 1234 4503 
Q 1613 4659 2075 4659 
Q 2584 4659 2973 4495 
Q 3363 4331 3572 4012 
Q 3781 3694 3797 3291 
L 3216 3247 
Q 3169 3681 2898 3903 
Q 2628 4125 2100 4125 
Q 1550 4125 1298 3923 
Q 1047 3722 1047 3438 
Q 1047 3191 1225 3031 
Q 1400 2872 2139 2705 
Q 2878 2538 3153 2413 
Q 3553 2228 3743 1945 
Q 3934 1663 3934 1294 
Q 3934 928 3725 604 
Q 3516 281 3123 101 
Q 2731 -78 2241 -78 
Q 1619 -78 1198 103 
Q 778 284 539 648 
Q 300 1013 288 1472 
z
" transform="scale(0.015625)"/>
        <path id="ArialMT-51" d="M 3966 491 
Q 4388 200 4744 66 
L 4566 -356 
Q 4072 -178 3581 206 
Q 3072 -78 2456 -78 
Q 1834 -78 1328 222 
Q 822 522 548 1065 
Q 275 1609 275 2291 
Q 275 2969 550 3525 
Q 825 4081 1333 4372 
Q 1841 4663 2469 4663 
Q 3103 4663 3612 4361 
Q 4122 4059 4389 3517 
Q 4656 2975 4656 2294 
Q 4656 1728 4484 1276 
Q 4313 825 3966 491 
z
M 2631 1266 
Q 3156 1119 3497 828 
Q 4031 1316 4031 2294 
Q 4031 2850 3842 3265 
Q 3653 3681 3289 3911 
Q 2925 4141 2472 4141 
Q 1794 4141 1347 3677 
Q 900 3213 900 2291 
Q 900 1397 1342 919 
Q 1784 441 2472 441 
Q 2797 441 3084 563 
Q 2800 747 2484 825 
L 2631 1266 
z
" transform="scale(0.015625)"/>
        <path id="ArialMT-20" transform="scale(0.015625)"/>
        <path id="ArialMT-2d" d="M 203 1375 
L 203 1941 
L 1931 1941 
L 1931 1375 
L 203 1375 
z
" transform="scale(0.015625)"/>
        <path id="ArialMT-43" d="M 3763 1606 
L 4369 1453 
Q 4178 706 3683 314 
Q 3188 -78 2472 -78 
Q 1731 -78 1267 223 
Q 803 525 561 1097 
Q 319 1669 319 2325 
Q 319 3041 592 3573 
Q 866 4106 1370 4382 
Q 1875 4659 2481 4659 
Q 3169 4659 3637 4309 
Q 4106 3959 4291 3325 
L 3694 3184 
Q 3534 3684 3231 3912 
Q 2928 4141 2469 4141 
Q 1941 4141 1586 3887 
Q 1231 3634 1087 3207 
Q 944 2781 944 2328 
Q 944 1744 1114 1308 
Q 1284 872 1643 656 
Q 2003 441 2422 441 
Q 2931 441 3284 734 
Q 3638 1028 3763 1606 
z
" transform="scale(0.015625)"/>
        <path id="ArialMT-6f" d="M 213 1659 
Q 213 2581 725 3025 
Q 1153 3394 1769 3394 
Q 2453 3394 2887 2945 
Q 3322 2497 3322 1706 
Q 3322 1066 3130 698 
Q 2938 331 2570 128 
Q 2203 -75 1769 -75 
Q 1072 -75 642 372 
Q 213 819 213 1659 
z
M 791 1659 
Q 791 1022 1069 705 
Q 1347 388 1769 388 
Q 2188 388 2466 706 
Q 2744 1025 2744 1678 
Q 2744 2294 2464 2611 
Q 2184 2928 1769 2928 
Q 1347 2928 1069 2612 
Q 791 2297 791 1659 
z
" transform="scale(0.015625)"/>
        <path id="ArialMT-72" d="M 416 0 
L 416 3319 
L 922 3319 
L 922 2816 
Q 1116 3169 1280 3281 
Q 1444 3394 1641 3394 
Q 1925 3394 2219 3213 
L 2025 2691 
Q 1819 2813 1613 2813 
Q 1428 2813 1281 2702 
Q 1134 2591 1072 2394 
Q 978 2094 978 1738 
L 978 0 
L 416 0 
z
" transform="scale(0.015625)"/>
        <path id="ArialMT-74" d="M 1650 503 
L 1731 6 
Q 1494 -44 1306 -44 
Q 1000 -44 831 53 
Q 663 150 594 308 
Q 525 466 525 972 
L 525 2881 
L 113 2881 
L 113 3319 
L 525 3319 
L 525 4141 
L 1084 4478 
L 1084 3319 
L 1650 3319 
L 1650 2881 
L 1084 2881 
L 1084 941 
Q 1084 700 1114 631 
Q 1144 563 1211 522 
Q 1278 481 1403 481 
Q 1497 481 1650 503 
z
" transform="scale(0.015625)"/>
        <path id="ArialMT-61" d="M 2588 409 
Q 2275 144 1986 34 
Q 1697 -75 1366 -75 
Q 819 -75 525 192 
Q 231 459 231 875 
Q 231 1119 342 1320 
Q 453 1522 633 1644 
Q 813 1766 1038 1828 
Q 1203 1872 1538 1913 
Q 2219 1994 2541 2106 
Q 2544 2222 2544 2253 
Q 2544 2597 2384 2738 
Q 2169 2928 1744 2928 
Q 1347 2928 1158 2789 
Q 969 2650 878 2297 
L 328 2372 
Q 403 2725 575 2942 
Q 747 3159 1072 3276 
Q 1397 3394 1825 3394 
Q 2250 3394 2515 3294 
Q 2781 3194 2906 3042 
Q 3031 2891 3081 2659 
Q 3109 2516 3109 2141 
L 3109 1391 
Q 3109 606 3145 398 
Q 3181 191 3288 0 
L 2700 0 
Q 2613 175 2588 409 
z
M 2541 1666 
Q 2234 1541 1622 1453 
Q 1275 1403 1131 1340 
Q 988 1278 909 1158 
Q 831 1038 831 891 
Q 831 666 1001 516 
Q 1172 366 1500 366 
Q 1825 366 2078 508 
Q 2331 650 2450 897 
Q 2541 1088 2541 1459 
L 2541 1666 
z
" transform="scale(0.015625)"/>
       </defs>
       <use xlink:href="#ArialMT-53"/>
       <use xlink:href="#ArialMT-51" transform="translate(66.699219 0)"/>
       <use xlink:href="#ArialMT-20" transform="translate(144.482422 0)"/>
       <use xlink:href="#ArialMT-2d" transform="translate(172.265625 0)"/>
       <use xlink:href="#ArialMT-20" transform="translate(205.566406 0)"/>
       <use xlink:href="#ArialMT-43" transform="translate(233.349609 0)"/>
       <use xlink:href="#ArialMT-6f" transform="translate(305.566406 0)"/>
       <use xlink:href="#ArialMT-72" transform="translate(361.181641 0)"/>
       <use xlink:href="#ArialMT-74" transform="translate(394.482422 0)"/>
       <use xlink:href="#ArialMT-61" transform="translate(422.265625 0)"/>
      </g>
     </g>
    </g>
    <g id="xtick_2">
     <g id="line2d_2">
      <g>
       <use xlink:href="#mffbad2c7cd" x="356.310938" y="655.577983" style="stroke: #000000; stroke-width: 0.8"/>
      </g>
     </g>
     <g id="text_2">
      <!-- SQ - Media -->
      <g transform="translate(302.014867 684.580262) rotate(-15) scale(0.11 -0.11)">
       <defs>
        <path id="ArialMT-4d" d="M 475 0 
L 475 4581 
L 1388 4581 
L 2472 1338 
Q 2622 884 2691 659 
Q 2769 909 2934 1394 
L 4031 4581 
L 4847 4581 
L 4847 0 
L 4263 0 
L 4263 3834 
L 2931 0 
L 2384 0 
L 1059 3900 
L 1059 0 
L 475 0 
z
" transform="scale(0.015625)"/>
        <path id="ArialMT-65" d="M 2694 1069 
L 3275 997 
Q 3138 488 2766 206 
Q 2394 -75 1816 -75 
Q 1088 -75 661 373 
Q 234 822 234 1631 
Q 234 2469 665 2931 
Q 1097 3394 1784 3394 
Q 2450 3394 2872 2941 
Q 3294 2488 3294 1666 
Q 3294 1616 3291 1516 
L 816 1516 
Q 847 969 1125 678 
Q 1403 388 1819 388 
Q 2128 388 2347 550 
Q 2566 713 2694 1069 
z
M 847 1978 
L 2700 1978 
Q 2663 2397 2488 2606 
Q 2219 2931 1791 2931 
Q 1403 2931 1139 2672 
Q 875 2413 847 1978 
z
" transform="scale(0.015625)"/>
        <path id="ArialMT-64" d="M 2575 0 
L 2575 419 
Q 2259 -75 1647 -75 
Q 1250 -75 917 144 
Q 584 363 401 755 
Q 219 1147 219 1656 
Q 219 2153 384 2558 
Q 550 2963 881 3178 
Q 1213 3394 1622 3394 
Q 1922 3394 2156 3267 
Q 2391 3141 2538 2938 
L 2538 4581 
L 3097 4581 
L 3097 0 
L 2575 0 
z
M 797 1656 
Q 797 1019 1065 703 
Q 1334 388 1700 388 
Q 2069 388 2326 689 
Q 2584 991 2584 1609 
Q 2584 2291 2321 2609 
Q 2059 2928 1675 2928 
Q 1300 2928 1048 2622 
Q 797 2316 797 1656 
z
" transform="scale(0.015625)"/>
        <path id="ArialMT-69" d="M 425 3934 
L 425 4581 
L 988 4581 
L 988 3934 
L 425 3934 
z
M 425 0 
L 425 3319 
L 988 3319 
L 988 0 
L 425 0 
z
" transform="scale(0.015625)"/>
       </defs>
       <use xlink:href="#ArialMT-53"/>
       <use xlink:href="#ArialMT-51" transform="translate(66.699219 0)"/>
       <use xlink:href="#ArialMT-20" transform="translate(144.482422 0)"/>
       <use xlink:href="#ArialMT-2d" transform="translate(172.265625 0)"/>
       <use xlink:href="#ArialMT-20" transform="translate(205.566406 0)"/>
       <use xlink:href="#ArialMT-4d" transform="translate(233.349609 0)"/>
       <use xlink:href="#ArialMT-65" transform="translate(316.650391 0)"/>
       <use xlink:href="#ArialMT-64" transform="translate(372.265625 0)"/>
       <use xlink:href="#ArialMT-69" transform="translate(427.880859 0)"/>
       <use xlink:href="#ArialMT-61" transform="translate(450.097656 0)"/>
      </g>
     </g>
    </g>
    <g id="xtick_3">
     <g id="line2d_3">
      <g>
       <use xlink:href="#mffbad2c7cd" x="561.837604" y="655.577983" style="stroke: #000000; stroke-width: 0.8"/>
      </g>
     </g>
     <g id="text_3">
      <!-- SQ - Larga -->
      <g transform="translate(509.272947 684.243526) rotate(-15) scale(0.11 -0.11)">
       <defs>
        <path id="ArialMT-4c" d="M 469 0 
L 469 4581 
L 1075 4581 
L 1075 541 
L 3331 541 
L 3331 0 
L 469 0 
z
" transform="scale(0.015625)"/>
        <path id="ArialMT-67" d="M 319 -275 
L 866 -356 
Q 900 -609 1056 -725 
Q 1266 -881 1628 -881 
Q 2019 -881 2231 -725 
Q 2444 -569 2519 -288 
Q 2563 -116 2559 434 
Q 2191 0 1641 0 
Q 956 0 581 494 
Q 206 988 206 1678 
Q 206 2153 378 2554 
Q 550 2956 876 3175 
Q 1203 3394 1644 3394 
Q 2231 3394 2613 2919 
L 2613 3319 
L 3131 3319 
L 3131 450 
Q 3131 -325 2973 -648 
Q 2816 -972 2473 -1159 
Q 2131 -1347 1631 -1347 
Q 1038 -1347 672 -1080 
Q 306 -813 319 -275 
z
M 784 1719 
Q 784 1066 1043 766 
Q 1303 466 1694 466 
Q 2081 466 2343 764 
Q 2606 1063 2606 1700 
Q 2606 2309 2336 2618 
Q 2066 2928 1684 2928 
Q 1309 2928 1046 2623 
Q 784 2319 784 1719 
z
" transform="scale(0.015625)"/>
       </defs>
       <use xlink:href="#ArialMT-53"/>
       <use xlink:href="#ArialMT-51" transform="translate(66.699219 0)"/>
       <use xlink:href="#ArialMT-20" transform="translate(144.482422 0)"/>
       <use xlink:href="#ArialMT-2d" transform="translate(172.265625 0)"/>
       <use xlink:href="#ArialMT-20" transform="translate(205.566406 0)"/>
       <use xlink:href="#ArialMT-4c" transform="translate(233.349609 0)"/>
       <use xlink:href="#ArialMT-61" transform="translate(288.964844 0)"/>
       <use xlink:href="#ArialMT-72" transform="translate(344.580078 0)"/>
       <use xlink:href="#ArialMT-67" transform="translate(377.880859 0)"/>
       <use xlink:href="#ArialMT-61" transform="translate(433.496094 0)"/>
      </g>
     </g>
    </g>
    <g id="xtick_4">
     <g id="line2d_4">
      <g>
       <use xlink:href="#mffbad2c7cd" x="767.364271" y="655.577983" style="stroke: #000000; stroke-width: 0.8"/>
      </g>
     </g>
     <g id="text_4">
      <!-- Prop - Corta -->
      <g transform="translate(708.934339 685.817421) rotate(-15) scale(0.11 -0.11)">
       <defs>
        <path id="ArialMT-50" d="M 494 0 
L 494 4581 
L 2222 4581 
Q 2678 4581 2919 4538 
Q 3256 4481 3484 4323 
Q 3713 4166 3852 3881 
Q 3991 3597 3991 3256 
Q 3991 2672 3619 2267 
Q 3247 1863 2275 1863 
L 1100 1863 
L 1100 0 
L 494 0 
z
M 1100 2403 
L 2284 2403 
Q 2872 2403 3119 2622 
Q 3366 2841 3366 3238 
Q 3366 3525 3220 3729 
Q 3075 3934 2838 4000 
Q 2684 4041 2272 4041 
L 1100 4041 
L 1100 2403 
z
" transform="scale(0.015625)"/>
        <path id="ArialMT-70" d="M 422 -1272 
L 422 3319 
L 934 3319 
L 934 2888 
Q 1116 3141 1344 3267 
Q 1572 3394 1897 3394 
Q 2322 3394 2647 3175 
Q 2972 2956 3137 2557 
Q 3303 2159 3303 1684 
Q 3303 1175 3120 767 
Q 2938 359 2589 142 
Q 2241 -75 1856 -75 
Q 1575 -75 1351 44 
Q 1128 163 984 344 
L 984 -1272 
L 422 -1272 
z
M 931 1641 
Q 931 1000 1190 694 
Q 1450 388 1819 388 
Q 2194 388 2461 705 
Q 2728 1022 2728 1688 
Q 2728 2322 2467 2637 
Q 2206 2953 1844 2953 
Q 1484 2953 1207 2617 
Q 931 2281 931 1641 
z
" transform="scale(0.015625)"/>
       </defs>
       <use xlink:href="#ArialMT-50"/>
       <use xlink:href="#ArialMT-72" transform="translate(66.699219 0)"/>
       <use xlink:href="#ArialMT-6f" transform="translate(100 0)"/>
       <use xlink:href="#ArialMT-70" transform="translate(155.615234 0)"/>
       <use xlink:href="#ArialMT-20" transform="translate(211.230469 0)"/>
       <use xlink:href="#ArialMT-2d" transform="translate(239.013672 0)"/>
       <use xlink:href="#ArialMT-20" transform="translate(272.314453 0)"/>
       <use xlink:href="#ArialMT-43" transform="translate(300.097656 0)"/>
       <use xlink:href="#ArialMT-6f" transform="translate(372.314453 0)"/>
       <use xlink:href="#ArialMT-72" transform="translate(427.929688 0)"/>
       <use xlink:href="#ArialMT-74" transform="translate(461.230469 0)"/>
       <use xlink:href="#ArialMT-61" transform="translate(489.013672 0)"/>
      </g>
     </g>
    </g>
    <g id="xtick_5">
     <g id="line2d_5">
      <g>
       <use xlink:href="#mffbad2c7cd" x="972.890938" y="655.577983" style="stroke: #000000; stroke-width: 0.8"/>
      </g>
     </g>
     <g id="text_5">
      <!-- Prop - Media -->
      <g transform="translate(911.504216 686.480196) rotate(-15) scale(0.11 -0.11)">
       <use xlink:href="#ArialMT-50"/>
       <use xlink:href="#ArialMT-72" transform="translate(66.699219 0)"/>
       <use xlink:href="#ArialMT-6f" transform="translate(100 0)"/>
       <use xlink:href="#ArialMT-70" transform="translate(155.615234 0)"/>
       <use xlink:href="#ArialMT-20" transform="translate(211.230469 0)"/>
       <use xlink:href="#ArialMT-2d" transform="translate(239.013672 0)"/>
       <use xlink:href="#ArialMT-20" transform="translate(272.314453 0)"/>
       <use xlink:href="#ArialMT-4d" transform="translate(300.097656 0)"/>
       <use xlink:href="#ArialMT-65" transform="translate(383.398438 0)"/>
       <use xlink:href="#ArialMT-64" transform="translate(439.013672 0)"/>
       <use xlink:href="#ArialMT-69" transform="translate(494.628906 0)"/>
       <use xlink:href="#ArialMT-61" transform="translate(516.845703 0)"/>
      </g>
     </g>
    </g>
    <g id="xtick_6">
     <g id="line2d_6">
      <g>
       <use xlink:href="#mffbad2c7cd" x="1178.417604" y="655.577983" style="stroke: #000000; stroke-width: 0.8"/>
      </g>
     </g>
     <g id="text_6">
      <!-- Prop - Larga -->
      <g transform="translate(1118.762296 686.007325) rotate(-15) scale(0.11 -0.11)">
       <use xlink:href="#ArialMT-50"/>
       <use xlink:href="#ArialMT-72" transform="translate(66.699219 0)"/>
       <use xlink:href="#ArialMT-6f" transform="translate(100 0)"/>
       <use xlink:href="#ArialMT-70" transform="translate(155.615234 0)"/>
       <use xlink:href="#ArialMT-20" transform="translate(211.230469 0)"/>
       <use xlink:href="#ArialMT-2d" transform="translate(239.013672 0)"/>
       <use xlink:href="#ArialMT-20" transform="translate(272.314453 0)"/>
       <use xlink:href="#ArialMT-4c" transform="translate(300.097656 0)"/>
       <use xlink:href="#ArialMT-61" transform="translate(355.712891 0)"/>
       <use xlink:href="#ArialMT-72" transform="translate(411.328125 0)"/>
       <use xlink:href="#ArialMT-67" transform="translate(444.628906 0)"/>
       <use xlink:href="#ArialMT-61" transform="translate(500.244141 0)"/>
      </g>
     </g>
    </g>
    <g id="text_7">
     <!-- Configuración -->
     <g transform="translate(617.162813 702.783514) scale(0.14 -0.14)">
      <defs>
       <path id="Arial-BoldMT-43" d="M 3397 1684 
L 4294 1400 
Q 4088 650 3608 286 
Q 3128 -78 2391 -78 
Q 1478 -78 890 545 
Q 303 1169 303 2250 
Q 303 3394 893 4026 
Q 1484 4659 2447 4659 
Q 3288 4659 3813 4163 
Q 4125 3869 4281 3319 
L 3366 3100 
Q 3284 3456 3026 3662 
Q 2769 3869 2400 3869 
Q 1891 3869 1573 3503 
Q 1256 3138 1256 2319 
Q 1256 1450 1568 1081 
Q 1881 713 2381 713 
Q 2750 713 3015 947 
Q 3281 1181 3397 1684 
z
" transform="scale(0.015625)"/>
       <path id="Arial-BoldMT-6f" d="M 256 1706 
Q 256 2144 472 2553 
Q 688 2963 1083 3178 
Q 1478 3394 1966 3394 
Q 2719 3394 3200 2905 
Q 3681 2416 3681 1669 
Q 3681 916 3195 420 
Q 2709 -75 1972 -75 
Q 1516 -75 1102 131 
Q 688 338 472 736 
Q 256 1134 256 1706 
z
M 1156 1659 
Q 1156 1166 1390 903 
Q 1625 641 1969 641 
Q 2313 641 2545 903 
Q 2778 1166 2778 1666 
Q 2778 2153 2545 2415 
Q 2313 2678 1969 2678 
Q 1625 2678 1390 2415 
Q 1156 2153 1156 1659 
z
" transform="scale(0.015625)"/>
       <path id="Arial-BoldMT-6e" d="M 3478 0 
L 2600 0 
L 2600 1694 
Q 2600 2231 2544 2389 
Q 2488 2547 2361 2634 
Q 2234 2722 2056 2722 
Q 1828 2722 1647 2597 
Q 1466 2472 1398 2265 
Q 1331 2059 1331 1503 
L 1331 0 
L 453 0 
L 453 3319 
L 1269 3319 
L 1269 2831 
Q 1703 3394 2363 3394 
Q 2653 3394 2893 3289 
Q 3134 3184 3257 3021 
Q 3381 2859 3429 2653 
Q 3478 2447 3478 2063 
L 3478 0 
z
" transform="scale(0.015625)"/>
       <path id="Arial-BoldMT-66" d="M 75 3319 
L 563 3319 
L 563 3569 
Q 563 3988 652 4194 
Q 741 4400 980 4529 
Q 1219 4659 1584 4659 
Q 1959 4659 2319 4547 
L 2200 3934 
Q 1991 3984 1797 3984 
Q 1606 3984 1523 3895 
Q 1441 3806 1441 3553 
L 1441 3319 
L 2097 3319 
L 2097 2628 
L 1441 2628 
L 1441 0 
L 563 0 
L 563 2628 
L 75 2628 
L 75 3319 
z
" transform="scale(0.015625)"/>
       <path id="Arial-BoldMT-69" d="M 459 3769 
L 459 4581 
L 1338 4581 
L 1338 3769 
L 459 3769 
z
M 459 0 
L 459 3319 
L 1338 3319 
L 1338 0 
L 459 0 
z
" transform="scale(0.015625)"/>
       <path id="Arial-BoldMT-67" d="M 378 -219 
L 1381 -341 
Q 1406 -516 1497 -581 
Q 1622 -675 1891 -675 
Q 2234 -675 2406 -572 
Q 2522 -503 2581 -350 
Q 2622 -241 2622 53 
L 2622 538 
Q 2228 0 1628 0 
Q 959 0 569 566 
Q 263 1013 263 1678 
Q 263 2513 664 2953 
Q 1066 3394 1663 3394 
Q 2278 3394 2678 2853 
L 2678 3319 
L 3500 3319 
L 3500 341 
Q 3500 -247 3403 -537 
Q 3306 -828 3131 -993 
Q 2956 -1159 2664 -1253 
Q 2372 -1347 1925 -1347 
Q 1081 -1347 728 -1058 
Q 375 -769 375 -325 
Q 375 -281 378 -219 
z
M 1163 1728 
Q 1163 1200 1367 954 
Q 1572 709 1872 709 
Q 2194 709 2416 961 
Q 2638 1213 2638 1706 
Q 2638 2222 2425 2472 
Q 2213 2722 1888 2722 
Q 1572 2722 1367 2476 
Q 1163 2231 1163 1728 
z
" transform="scale(0.015625)"/>
       <path id="Arial-BoldMT-75" d="M 2644 0 
L 2644 497 
Q 2463 231 2167 78 
Q 1872 -75 1544 -75 
Q 1209 -75 943 72 
Q 678 219 559 484 
Q 441 750 441 1219 
L 441 3319 
L 1319 3319 
L 1319 1794 
Q 1319 1094 1367 936 
Q 1416 778 1544 686 
Q 1672 594 1869 594 
Q 2094 594 2272 717 
Q 2450 841 2515 1023 
Q 2581 1206 2581 1919 
L 2581 3319 
L 3459 3319 
L 3459 0 
L 2644 0 
z
" transform="scale(0.015625)"/>
       <path id="Arial-BoldMT-72" d="M 1300 0 
L 422 0 
L 422 3319 
L 1238 3319 
L 1238 2847 
Q 1447 3181 1614 3287 
Q 1781 3394 1994 3394 
Q 2294 3394 2572 3228 
L 2300 2463 
Q 2078 2606 1888 2606 
Q 1703 2606 1575 2504 
Q 1447 2403 1373 2137 
Q 1300 1872 1300 1025 
L 1300 0 
z
" transform="scale(0.015625)"/>
       <path id="Arial-BoldMT-61" d="M 1116 2306 
L 319 2450 
Q 453 2931 781 3162 
Q 1109 3394 1756 3394 
Q 2344 3394 2631 3255 
Q 2919 3116 3036 2902 
Q 3153 2688 3153 2116 
L 3144 1091 
Q 3144 653 3186 445 
Q 3228 238 3344 0 
L 2475 0 
Q 2441 88 2391 259 
Q 2369 338 2359 363 
Q 2134 144 1878 34 
Q 1622 -75 1331 -75 
Q 819 -75 523 203 
Q 228 481 228 906 
Q 228 1188 362 1408 
Q 497 1628 739 1745 
Q 981 1863 1438 1950 
Q 2053 2066 2291 2166 
L 2291 2253 
Q 2291 2506 2166 2614 
Q 2041 2722 1694 2722 
Q 1459 2722 1328 2630 
Q 1197 2538 1116 2306 
z
M 2291 1594 
Q 2122 1538 1756 1459 
Q 1391 1381 1278 1306 
Q 1106 1184 1106 997 
Q 1106 813 1243 678 
Q 1381 544 1594 544 
Q 1831 544 2047 700 
Q 2206 819 2256 991 
Q 2291 1103 2291 1419 
L 2291 1594 
z
" transform="scale(0.015625)"/>
       <path id="Arial-BoldMT-63" d="M 3353 2338 
L 2488 2181 
Q 2444 2441 2289 2572 
Q 2134 2703 1888 2703 
Q 1559 2703 1364 2476 
Q 1169 2250 1169 1719 
Q 1169 1128 1367 884 
Q 1566 641 1900 641 
Q 2150 641 2309 783 
Q 2469 925 2534 1272 
L 3397 1125 
Q 3263 531 2881 228 
Q 2500 -75 1859 -75 
Q 1131 -75 698 384 
Q 266 844 266 1656 
Q 266 2478 700 2936 
Q 1134 3394 1875 3394 
Q 2481 3394 2839 3133 
Q 3197 2872 3353 2338 
z
" transform="scale(0.015625)"/>
       <path id="Arial-BoldMT-f3" d="M 256 1706 
Q 256 2144 472 2553 
Q 688 2963 1083 3178 
Q 1478 3394 1966 3394 
Q 2719 3394 3200 2905 
Q 3681 2416 3681 1669 
Q 3681 916 3195 420 
Q 2709 -75 1972 -75 
Q 1516 -75 1102 131 
Q 688 338 472 736 
Q 256 1134 256 1706 
z
M 1156 1659 
Q 1156 1166 1390 903 
Q 1625 641 1969 641 
Q 2313 641 2545 903 
Q 2778 1166 2778 1666 
Q 2778 2153 2545 2415 
Q 2313 2678 1969 2678 
Q 1625 2678 1390 2415 
Q 1156 2153 1156 1659 
z
M 1528 3725 
L 1960 4659 
L 2944 4659 
L 2085 3725 
L 1528 3725 
z
" transform="scale(0.015625)"/>
      </defs>
      <use xlink:href="#Arial-BoldMT-43"/>
      <use xlink:href="#Arial-BoldMT-6f" transform="translate(72.216797 0)"/>
      <use xlink:href="#Arial-BoldMT-6e" transform="translate(133.300781 0)"/>
      <use xlink:href="#Arial-BoldMT-66" transform="translate(194.384766 0)"/>
      <use xlink:href="#Arial-BoldMT-69" transform="translate(227.685547 0)"/>
      <use xlink:href="#Arial-BoldMT-67" transform="translate(255.46875 0)"/>
      <use xlink:href="#Arial-BoldMT-75" transform="translate(316.552734 0)"/>
      <use xlink:href="#Arial-BoldMT-72" transform="translate(377.636719 0)"/>
      <use xlink:href="#Arial-BoldMT-61" transform="translate(416.552734 0)"/>
      <use xlink:href="#Arial-BoldMT-63" transform="translate(472.167969 0)"/>
      <use xlink:href="#Arial-BoldMT-69" transform="translate(527.783203 0)"/>
      <use xlink:href="#Arial-BoldMT-f3" transform="translate(555.566406 0)"/>
      <use xlink:href="#Arial-BoldMT-6e" transform="translate(616.650391 0)"/>
     </g>
    </g>
   </g>
   <g id="matplotlib.axis_2">
    <g id="ytick_1">
     <g id="line2d_7">
      <path d="M 48.020938 655.577983 
L 1281.180938 655.577983 
" clip-path="url(#pc7bd5861df)" style="fill: none; stroke-dasharray: 0.5,0.825; stroke-dashoffset: 0; stroke: #e0e0e0; stroke-opacity: 0.3; stroke-width: 0.5"/>
     </g>
     <g id="line2d_8">
      <defs>
       <path id="m7ed44b242c" d="M 0 0 
L -3.5 0 
" style="stroke: #000000; stroke-width: 0.8"/>
      </defs>
      <g>
       <use xlink:href="#m7ed44b242c" x="48.020938" y="655.577983" style="stroke: #000000; stroke-width: 0.8"/>
      </g>
     </g>
     <g id="text_8">
      <!-- 65 -->
      <g transform="translate(29.899062 659.156889) scale(0.1 -0.1)">
       <defs>
        <path id="ArialMT-36" d="M 3184 3459 
L 2625 3416 
Q 2550 3747 2413 3897 
Q 2184 4138 1850 4138 
Q 1581 4138 1378 3988 
Q 1113 3794 959 3422 
Q 806 3050 800 2363 
Q 1003 2672 1297 2822 
Q 1591 2972 1913 2972 
Q 2475 2972 2870 2558 
Q 3266 2144 3266 1488 
Q 3266 1056 3080 686 
Q 2894 316 2569 119 
Q 2244 -78 1831 -78 
Q 1128 -78 684 439 
Q 241 956 241 2144 
Q 241 3472 731 4075 
Q 1159 4600 1884 4600 
Q 2425 4600 2770 4297 
Q 3116 3994 3184 3459 
z
M 888 1484 
Q 888 1194 1011 928 
Q 1134 663 1356 523 
Q 1578 384 1822 384 
Q 2178 384 2434 671 
Q 2691 959 2691 1453 
Q 2691 1928 2437 2201 
Q 2184 2475 1800 2475 
Q 1419 2475 1153 2201 
Q 888 1928 888 1484 
z
" transform="scale(0.015625)"/>
        <path id="ArialMT-35" d="M 266 1200 
L 856 1250 
Q 922 819 1161 601 
Q 1400 384 1738 384 
Q 2144 384 2425 690 
Q 2706 997 2706 1503 
Q 2706 1984 2436 2262 
Q 2166 2541 1728 2541 
Q 1456 2541 1237 2417 
Q 1019 2294 894 2097 
L 366 2166 
L 809 4519 
L 3088 4519 
L 3088 3981 
L 1259 3981 
L 1013 2750 
Q 1425 3038 1878 3038 
Q 2478 3038 2890 2622 
Q 3303 2206 3303 1553 
Q 3303 931 2941 478 
Q 2500 -78 1738 -78 
Q 1113 -78 717 272 
Q 322 622 266 1200 
z
" transform="scale(0.015625)"/>
       </defs>
       <use xlink:href="#ArialMT-36"/>
       <use xlink:href="#ArialMT-35" transform="translate(55.615234 0)"/>
      </g>
     </g>
    </g>
    <g id="ytick_2">
     <g id="line2d_9">
      <path d="M 48.020938 579.803235 
L 1281.180938 579.803235 
" clip-path="url(#pc7bd5861df)" style="fill: none; stroke-dasharray: 0.5,0.825; stroke-dashoffset: 0; stroke: #e0e0e0; stroke-opacity: 0.3; stroke-width: 0.5"/>
     </g>
     <g id="line2d_10">
      <g>
       <use xlink:href="#m7ed44b242c" x="48.020938" y="579.803235" style="stroke: #000000; stroke-width: 0.8"/>
      </g>
     </g>
     <g id="text_9">
      <!-- 70 -->
      <g transform="translate(29.899062 583.382141) scale(0.1 -0.1)">
       <defs>
        <path id="ArialMT-37" d="M 303 3981 
L 303 4522 
L 3269 4522 
L 3269 4084 
Q 2831 3619 2401 2847 
Q 1972 2075 1738 1259 
Q 1569 684 1522 0 
L 944 0 
Q 953 541 1156 1306 
Q 1359 2072 1739 2783 
Q 2119 3494 2547 3981 
L 303 3981 
z
" transform="scale(0.015625)"/>
        <path id="ArialMT-30" d="M 266 2259 
Q 266 3072 433 3567 
Q 600 4063 929 4331 
Q 1259 4600 1759 4600 
Q 2128 4600 2406 4451 
Q 2684 4303 2865 4023 
Q 3047 3744 3150 3342 
Q 3253 2941 3253 2259 
Q 3253 1453 3087 958 
Q 2922 463 2592 192 
Q 2263 -78 1759 -78 
Q 1097 -78 719 397 
Q 266 969 266 2259 
z
M 844 2259 
Q 844 1131 1108 757 
Q 1372 384 1759 384 
Q 2147 384 2411 759 
Q 2675 1134 2675 2259 
Q 2675 3391 2411 3762 
Q 2147 4134 1753 4134 
Q 1366 4134 1134 3806 
Q 844 3388 844 2259 
z
" transform="scale(0.015625)"/>
       </defs>
       <use xlink:href="#ArialMT-37"/>
       <use xlink:href="#ArialMT-30" transform="translate(55.615234 0)"/>
      </g>
     </g>
    </g>
    <g id="ytick_3">
     <g id="line2d_11">
      <path d="M 48.020938 504.028487 
L 1281.180938 504.028487 
" clip-path="url(#pc7bd5861df)" style="fill: none; stroke-dasharray: 0.5,0.825; stroke-dashoffset: 0; stroke: #e0e0e0; stroke-opacity: 0.3; stroke-width: 0.5"/>
     </g>
     <g id="line2d_12">
      <g>
       <use xlink:href="#m7ed44b242c" x="48.020938" y="504.028487" style="stroke: #000000; stroke-width: 0.8"/>
      </g>
     </g>
     <g id="text_10">
      <!-- 75 -->
      <g transform="translate(29.899062 507.607394) scale(0.1 -0.1)">
       <use xlink:href="#ArialMT-37"/>
       <use xlink:href="#ArialMT-35" transform="translate(55.615234 0)"/>
      </g>
     </g>
    </g>
    <g id="ytick_4">
     <g id="line2d_13">
      <path d="M 48.020938 428.253739 
L 1281.180938 428.253739 
" clip-path="url(#pc7bd5861df)" style="fill: none; stroke-dasharray: 0.5,0.825; stroke-dashoffset: 0; stroke: #e0e0e0; stroke-opacity: 0.3; stroke-width: 0.5"/>
     </g>
     <g id="line2d_14">
      <g>
       <use xlink:href="#m7ed44b242c" x="48.020938" y="428.253739" style="stroke: #000000; stroke-width: 0.8"/>
      </g>
     </g>
     <g id="text_11">
      <!-- 80 -->
      <g transform="translate(29.899062 431.832646) scale(0.1 -0.1)">
       <defs>
        <path id="ArialMT-38" d="M 1131 2484 
Q 781 2613 612 2850 
Q 444 3088 444 3419 
Q 444 3919 803 4259 
Q 1163 4600 1759 4600 
Q 2359 4600 2725 4251 
Q 3091 3903 3091 3403 
Q 3091 3084 2923 2848 
Q 2756 2613 2416 2484 
Q 2838 2347 3058 2040 
Q 3278 1734 3278 1309 
Q 3278 722 2862 322 
Q 2447 -78 1769 -78 
Q 1091 -78 675 323 
Q 259 725 259 1325 
Q 259 1772 486 2073 
Q 713 2375 1131 2484 
z
M 1019 3438 
Q 1019 3113 1228 2906 
Q 1438 2700 1772 2700 
Q 2097 2700 2305 2904 
Q 2513 3109 2513 3406 
Q 2513 3716 2298 3927 
Q 2084 4138 1766 4138 
Q 1444 4138 1231 3931 
Q 1019 3725 1019 3438 
z
M 838 1322 
Q 838 1081 952 856 
Q 1066 631 1291 507 
Q 1516 384 1775 384 
Q 2178 384 2440 643 
Q 2703 903 2703 1303 
Q 2703 1709 2433 1975 
Q 2163 2241 1756 2241 
Q 1359 2241 1098 1978 
Q 838 1716 838 1322 
z
" transform="scale(0.015625)"/>
       </defs>
       <use xlink:href="#ArialMT-38"/>
       <use xlink:href="#ArialMT-30" transform="translate(55.615234 0)"/>
      </g>
     </g>
    </g>
    <g id="ytick_5">
     <g id="line2d_15">
      <path d="M 48.020938 352.478992 
L 1281.180938 352.478992 
" clip-path="url(#pc7bd5861df)" style="fill: none; stroke-dasharray: 0.5,0.825; stroke-dashoffset: 0; stroke: #e0e0e0; stroke-opacity: 0.3; stroke-width: 0.5"/>
     </g>
     <g id="line2d_16">
      <g>
       <use xlink:href="#m7ed44b242c" x="48.020938" y="352.478992" style="stroke: #000000; stroke-width: 0.8"/>
      </g>
     </g>
     <g id="text_12">
      <!-- 85 -->
      <g transform="translate(29.899062 356.057898) scale(0.1 -0.1)">
       <use xlink:href="#ArialMT-38"/>
       <use xlink:href="#ArialMT-35" transform="translate(55.615234 0)"/>
      </g>
     </g>
    </g>
    <g id="ytick_6">
     <g id="line2d_17">
      <path d="M 48.020938 276.704244 
L 1281.180938 276.704244 
" clip-path="url(#pc7bd5861df)" style="fill: none; stroke-dasharray: 0.5,0.825; stroke-dashoffset: 0; stroke: #e0e0e0; stroke-opacity: 0.3; stroke-width: 0.5"/>
     </g>
     <g id="line2d_18">
      <g>
       <use xlink:href="#m7ed44b242c" x="48.020938" y="276.704244" style="stroke: #000000; stroke-width: 0.8"/>
      </g>
     </g>
     <g id="text_13">
      <!-- 90 -->
      <g transform="translate(29.899062 280.28315) scale(0.1 -0.1)">
       <defs>
        <path id="ArialMT-39" d="M 350 1059 
L 891 1109 
Q 959 728 1153 556 
Q 1347 384 1650 384 
Q 1909 384 2104 503 
Q 2300 622 2425 820 
Q 2550 1019 2634 1356 
Q 2719 1694 2719 2044 
Q 2719 2081 2716 2156 
Q 2547 1888 2255 1720 
Q 1963 1553 1622 1553 
Q 1053 1553 659 1965 
Q 266 2378 266 3053 
Q 266 3750 677 4175 
Q 1088 4600 1706 4600 
Q 2153 4600 2523 4359 
Q 2894 4119 3086 3673 
Q 3278 3228 3278 2384 
Q 3278 1506 3087 986 
Q 2897 466 2520 194 
Q 2144 -78 1638 -78 
Q 1100 -78 759 220 
Q 419 519 350 1059 
z
M 2653 3081 
Q 2653 3566 2395 3850 
Q 2138 4134 1775 4134 
Q 1400 4134 1122 3828 
Q 844 3522 844 3034 
Q 844 2597 1108 2323 
Q 1372 2050 1759 2050 
Q 2150 2050 2401 2323 
Q 2653 2597 2653 3081 
z
" transform="scale(0.015625)"/>
       </defs>
       <use xlink:href="#ArialMT-39"/>
       <use xlink:href="#ArialMT-30" transform="translate(55.615234 0)"/>
      </g>
     </g>
    </g>
    <g id="ytick_7">
     <g id="line2d_19">
      <path d="M 48.020938 200.929496 
L 1281.180938 200.929496 
" clip-path="url(#pc7bd5861df)" style="fill: none; stroke-dasharray: 0.5,0.825; stroke-dashoffset: 0; stroke: #e0e0e0; stroke-opacity: 0.3; stroke-width: 0.5"/>
     </g>
     <g id="line2d_20">
      <g>
       <use xlink:href="#m7ed44b242c" x="48.020938" y="200.929496" style="stroke: #000000; stroke-width: 0.8"/>
      </g>
     </g>
     <g id="text_14">
      <!-- 95 -->
      <g transform="translate(29.899062 204.508402) scale(0.1 -0.1)">
       <use xlink:href="#ArialMT-39"/>
       <use xlink:href="#ArialMT-35" transform="translate(55.615234 0)"/>
      </g>
     </g>
    </g>
    <g id="ytick_8">
     <g id="line2d_21">
      <path d="M 48.020938 125.154748 
L 1281.180938 125.154748 
" clip-path="url(#pc7bd5861df)" style="fill: none; stroke-dasharray: 0.5,0.825; stroke-dashoffset: 0; stroke: #e0e0e0; stroke-opacity: 0.3; stroke-width: 0.5"/>
     </g>
     <g id="line2d_22">
      <g>
       <use xlink:href="#m7ed44b242c" x="48.020938" y="125.154748" style="stroke: #000000; stroke-width: 0.8"/>
      </g>
     </g>
     <g id="text_15">
      <!-- 100 -->
      <g transform="translate(24.338125 128.733654) scale(0.1 -0.1)">
       <defs>
        <path id="ArialMT-31" d="M 2384 0 
L 1822 0 
L 1822 3584 
Q 1619 3391 1289 3197 
Q 959 3003 697 2906 
L 697 3450 
Q 1169 3672 1522 3987 
Q 1875 4303 2022 4600 
L 2384 4600 
L 2384 0 
z
" transform="scale(0.015625)"/>
       </defs>
       <use xlink:href="#ArialMT-31"/>
       <use xlink:href="#ArialMT-30" transform="translate(55.615234 0)"/>
       <use xlink:href="#ArialMT-30" transform="translate(111.230469 0)"/>
      </g>
     </g>
    </g>
    <g id="ytick_9">
     <g id="line2d_23">
      <path d="M 48.020938 49.38 
L 1281.180938 49.38 
" clip-path="url(#pc7bd5861df)" style="fill: none; stroke-dasharray: 0.5,0.825; stroke-dashoffset: 0; stroke: #e0e0e0; stroke-opacity: 0.3; stroke-width: 0.5"/>
     </g>
     <g id="line2d_24">
      <g>
       <use xlink:href="#m7ed44b242c" x="48.020938" y="49.38" style="stroke: #000000; stroke-width: 0.8"/>
      </g>
     </g>
     <g id="text_16">
      <!-- 105 -->
      <g transform="translate(24.338125 52.958906) scale(0.1 -0.1)">
       <use xlink:href="#ArialMT-31"/>
       <use xlink:href="#ArialMT-30" transform="translate(55.615234 0)"/>
       <use xlink:href="#ArialMT-35" transform="translate(111.230469 0)"/>
      </g>
     </g>
    </g>
    <g id="text_17">
     <!-- Nivel de Servicio (%) -->
     <g transform="translate(17.391562 421.333835) rotate(-90) scale(0.14 -0.14)">
      <defs>
       <path id="Arial-BoldMT-4e" d="M 475 0 
L 475 4581 
L 1375 4581 
L 3250 1522 
L 3250 4581 
L 4109 4581 
L 4109 0 
L 3181 0 
L 1334 2988 
L 1334 0 
L 475 0 
z
" transform="scale(0.015625)"/>
       <path id="Arial-BoldMT-76" d="M 1372 0 
L 34 3319 
L 956 3319 
L 1581 1625 
L 1763 1059 
Q 1834 1275 1853 1344 
Q 1897 1484 1947 1625 
L 2578 3319 
L 3481 3319 
L 2163 0 
L 1372 0 
z
" transform="scale(0.015625)"/>
       <path id="Arial-BoldMT-65" d="M 2381 1056 
L 3256 909 
Q 3088 428 2723 176 
Q 2359 -75 1813 -75 
Q 947 -75 531 491 
Q 203 944 203 1634 
Q 203 2459 634 2926 
Q 1066 3394 1725 3394 
Q 2466 3394 2894 2905 
Q 3322 2416 3303 1406 
L 1103 1406 
Q 1113 1016 1316 798 
Q 1519 581 1822 581 
Q 2028 581 2168 693 
Q 2309 806 2381 1056 
z
M 2431 1944 
Q 2422 2325 2234 2523 
Q 2047 2722 1778 2722 
Q 1491 2722 1303 2513 
Q 1116 2303 1119 1944 
L 2431 1944 
z
" transform="scale(0.015625)"/>
       <path id="Arial-BoldMT-6c" d="M 459 0 
L 459 4581 
L 1338 4581 
L 1338 0 
L 459 0 
z
" transform="scale(0.015625)"/>
       <path id="Arial-BoldMT-20" transform="scale(0.015625)"/>
       <path id="Arial-BoldMT-64" d="M 3503 0 
L 2688 0 
L 2688 488 
Q 2484 203 2207 64 
Q 1931 -75 1650 -75 
Q 1078 -75 670 386 
Q 263 847 263 1672 
Q 263 2516 659 2955 
Q 1056 3394 1663 3394 
Q 2219 3394 2625 2931 
L 2625 4581 
L 3503 4581 
L 3503 0 
z
M 1159 1731 
Q 1159 1200 1306 963 
Q 1519 619 1900 619 
Q 2203 619 2415 876 
Q 2628 1134 2628 1647 
Q 2628 2219 2422 2470 
Q 2216 2722 1894 2722 
Q 1581 2722 1370 2473 
Q 1159 2225 1159 1731 
z
" transform="scale(0.015625)"/>
       <path id="Arial-BoldMT-53" d="M 231 1491 
L 1131 1578 
Q 1213 1125 1461 912 
Q 1709 700 2131 700 
Q 2578 700 2804 889 
Q 3031 1078 3031 1331 
Q 3031 1494 2936 1608 
Q 2841 1722 2603 1806 
Q 2441 1863 1863 2006 
Q 1119 2191 819 2459 
Q 397 2838 397 3381 
Q 397 3731 595 4036 
Q 794 4341 1167 4500 
Q 1541 4659 2069 4659 
Q 2931 4659 3367 4281 
Q 3803 3903 3825 3272 
L 2900 3231 
Q 2841 3584 2645 3739 
Q 2450 3894 2059 3894 
Q 1656 3894 1428 3728 
Q 1281 3622 1281 3444 
Q 1281 3281 1419 3166 
Q 1594 3019 2269 2859 
Q 2944 2700 3267 2529 
Q 3591 2359 3773 2064 
Q 3956 1769 3956 1334 
Q 3956 941 3737 597 
Q 3519 253 3119 86 
Q 2719 -81 2122 -81 
Q 1253 -81 787 320 
Q 322 722 231 1491 
z
" transform="scale(0.015625)"/>
       <path id="Arial-BoldMT-28" d="M 1916 -1347 
L 1313 -1347 
Q 834 -625 584 153 
Q 334 931 334 1659 
Q 334 2563 644 3369 
Q 913 4069 1325 4659 
L 1925 4659 
Q 1497 3713 1336 3048 
Q 1175 2384 1175 1641 
Q 1175 1128 1270 590 
Q 1366 53 1531 -431 
Q 1641 -750 1916 -1347 
z
" transform="scale(0.015625)"/>
       <path id="Arial-BoldMT-25" d="M 278 3450 
Q 278 4066 548 4362 
Q 819 4659 1281 4659 
Q 1759 4659 2029 4364 
Q 2300 4069 2300 3450 
Q 2300 2834 2029 2537 
Q 1759 2241 1297 2241 
Q 819 2241 548 2536 
Q 278 2831 278 3450 
z
M 963 3456 
Q 963 3009 1066 2856 
Q 1144 2744 1281 2744 
Q 1422 2744 1500 2856 
Q 1600 3009 1600 3456 
Q 1600 3903 1500 4053 
Q 1422 4169 1281 4169 
Q 1144 4169 1066 4056 
Q 963 3903 963 3456 
z
M 1950 -175 
L 1300 -175 
L 3741 4659 
L 4372 4659 
L 1950 -175 
z
M 3369 1028 
Q 3369 1644 3639 1941 
Q 3909 2238 4378 2238 
Q 4850 2238 5120 1941 
Q 5391 1644 5391 1028 
Q 5391 409 5120 112 
Q 4850 -184 4388 -184 
Q 3909 -184 3639 112 
Q 3369 409 3369 1028 
z
M 4053 1031 
Q 4053 584 4156 434 
Q 4234 319 4372 319 
Q 4513 319 4588 431 
Q 4691 584 4691 1031 
Q 4691 1478 4591 1631 
Q 4513 1744 4372 1744 
Q 4231 1744 4156 1631 
Q 4053 1478 4053 1031 
z
" transform="scale(0.015625)"/>
       <path id="Arial-BoldMT-29" d="M 216 -1347 
Q 475 -791 581 -494 
Q 688 -197 778 190 
Q 869 578 912 926 
Q 956 1275 956 1641 
Q 956 2384 797 3048 
Q 638 3713 209 4659 
L 806 4659 
Q 1278 3988 1539 3234 
Q 1800 2481 1800 1706 
Q 1800 1053 1594 306 
Q 1359 -531 822 -1347 
L 216 -1347 
z
" transform="scale(0.015625)"/>
      </defs>
      <use xlink:href="#Arial-BoldMT-4e"/>
      <use xlink:href="#Arial-BoldMT-69" transform="translate(72.216797 0)"/>
      <use xlink:href="#Arial-BoldMT-76" transform="translate(100 0)"/>
      <use xlink:href="#Arial-BoldMT-65" transform="translate(155.615234 0)"/>
      <use xlink:href="#Arial-BoldMT-6c" transform="translate(211.230469 0)"/>
      <use xlink:href="#Arial-BoldMT-20" transform="translate(239.013672 0)"/>
      <use xlink:href="#Arial-BoldMT-64" transform="translate(266.796875 0)"/>
      <use xlink:href="#Arial-BoldMT-65" transform="translate(327.880859 0)"/>
      <use xlink:href="#Arial-BoldMT-20" transform="translate(383.496094 0)"/>
      <use xlink:href="#Arial-BoldMT-53" transform="translate(411.279297 0)"/>
      <use xlink:href="#Arial-BoldMT-65" transform="translate(477.978516 0)"/>
      <use xlink:href="#Arial-BoldMT-72" transform="translate(533.59375 0)"/>
      <use xlink:href="#Arial-BoldMT-76" transform="translate(572.509766 0)"/>
      <use xlink:href="#Arial-BoldMT-69" transform="translate(628.125 0)"/>
      <use xlink:href="#Arial-BoldMT-63" transform="translate(655.908203 0)"/>
      <use xlink:href="#Arial-BoldMT-69" transform="translate(711.523438 0)"/>
      <use xlink:href="#Arial-BoldMT-6f" transform="translate(739.306641 0)"/>
      <use xlink:href="#Arial-BoldMT-20" transform="translate(800.390625 0)"/>
      <use xlink:href="#Arial-BoldMT-28" transform="translate(828.173828 0)"/>
      <use xlink:href="#Arial-BoldMT-25" transform="translate(861.474609 0)"/>
      <use xlink:href="#Arial-BoldMT-29" transform="translate(950.390625 0)"/>
     </g>
    </g>
   </g>
   <g id="patch_3">
    <path d="M 89.126271 392.852535 
L 212.442271 392.852535 
L 212.442271 359.809062 
L 89.126271 359.809062 
L 89.126271 392.852535 
z
" clip-path="url(#pc7bd5861df)" style="fill: #8fc1a9; opacity: 0.75; stroke: #000000; stroke-width: 1.5; stroke-linejoin: miter"/>
   </g>
   <g id="line2d_25">
    <path d="M 150.784271 392.852535 
L 150.784271 441.264264 
" clip-path="url(#pc7bd5861df)" style="fill: none; stroke: #000000; stroke-width: 1.5; stroke-linecap: square"/>
   </g>
   <g id="line2d_26">
    <path d="M 150.784271 359.809062 
L 150.784271 311.166599 
" clip-path="url(#pc7bd5861df)" style="fill: none; stroke: #000000; stroke-width: 1.5; stroke-linecap: square"/>
   </g>
   <g id="line2d_27">
    <path d="M 119.955271 441.264264 
L 181.613271 441.264264 
" clip-path="url(#pc7bd5861df)" style="fill: none; stroke: #000000; stroke-width: 1.5; stroke-linecap: square"/>
   </g>
   <g id="line2d_28">
    <path d="M 119.955271 311.166599 
L 181.613271 311.166599 
" clip-path="url(#pc7bd5861df)" style="fill: none; stroke: #000000; stroke-width: 1.5; stroke-linecap: square"/>
   </g>
   <g id="line2d_29">
    <defs>
     <path id="m8a5072f3fa" d="M 0 3 
C 0.795609 3 1.55874 2.683901 2.12132 2.12132 
C 2.683901 1.55874 3 0.795609 3 0 
C 3 -0.795609 2.683901 -1.55874 2.12132 -2.12132 
C 1.55874 -2.683901 0.795609 -3 0 -3 
C -0.795609 -3 -1.55874 -2.683901 -2.12132 -2.12132 
C -2.683901 -1.55874 -3 -0.795609 -3 0 
C -3 0.795609 -2.683901 1.55874 -2.12132 2.12132 
C -1.55874 2.683901 -0.795609 3 0 3 
z
" style="stroke: #000000"/>
    </defs>
    <g clip-path="url(#pc7bd5861df)">
     <use xlink:href="#m8a5072f3fa" x="150.784271" y="443.476886" style="fill-opacity: 0; stroke: #000000"/>
     <use xlink:href="#m8a5072f3fa" x="150.784271" y="451.40444" style="fill-opacity: 0; stroke: #000000"/>
     <use xlink:href="#m8a5072f3fa" x="150.784271" y="442.894936" style="fill-opacity: 0; stroke: #000000"/>
     <use xlink:href="#m8a5072f3fa" x="150.784271" y="450.643662" style="fill-opacity: 0; stroke: #000000"/>
     <use xlink:href="#m8a5072f3fa" x="150.784271" y="443.055579" style="fill-opacity: 0; stroke: #000000"/>
     <use xlink:href="#m8a5072f3fa" x="150.784271" y="235.614629" style="fill-opacity: 0; stroke: #000000"/>
     <use xlink:href="#m8a5072f3fa" x="150.784271" y="224.51969" style="fill-opacity: 0; stroke: #000000"/>
     <use xlink:href="#m8a5072f3fa" x="150.784271" y="183.161833" style="fill-opacity: 0; stroke: #000000"/>
     <use xlink:href="#m8a5072f3fa" x="150.784271" y="304.545402" style="fill-opacity: 0; stroke: #000000"/>
     <use xlink:href="#m8a5072f3fa" x="150.784271" y="308.964585" style="fill-opacity: 0; stroke: #000000"/>
     <use xlink:href="#m8a5072f3fa" x="150.784271" y="275.450929" style="fill-opacity: 0; stroke: #000000"/>
     <use xlink:href="#m8a5072f3fa" x="150.784271" y="223.226973" style="fill-opacity: 0; stroke: #000000"/>
     <use xlink:href="#m8a5072f3fa" x="150.784271" y="230.855975" style="fill-opacity: 0; stroke: #000000"/>
     <use xlink:href="#m8a5072f3fa" x="150.784271" y="189.164708" style="fill-opacity: 0; stroke: #000000"/>
     <use xlink:href="#m8a5072f3fa" x="150.784271" y="190.627161" style="fill-opacity: 0; stroke: #000000"/>
     <use xlink:href="#m8a5072f3fa" x="150.784271" y="194.718997" style="fill-opacity: 0; stroke: #000000"/>
     <use xlink:href="#m8a5072f3fa" x="150.784271" y="210.611993" style="fill-opacity: 0; stroke: #000000"/>
     <use xlink:href="#m8a5072f3fa" x="150.784271" y="262.998107" style="fill-opacity: 0; stroke: #000000"/>
     <use xlink:href="#m8a5072f3fa" x="150.784271" y="275.373639" style="fill-opacity: 0; stroke: #000000"/>
     <use xlink:href="#m8a5072f3fa" x="150.784271" y="278.090922" style="fill-opacity: 0; stroke: #000000"/>
     <use xlink:href="#m8a5072f3fa" x="150.784271" y="217.807563" style="fill-opacity: 0; stroke: #000000"/>
     <use xlink:href="#m8a5072f3fa" x="150.784271" y="252.688195" style="fill-opacity: 0; stroke: #000000"/>
     <use xlink:href="#m8a5072f3fa" x="150.784271" y="277.903" style="fill-opacity: 0; stroke: #000000"/>
     <use xlink:href="#m8a5072f3fa" x="150.784271" y="265.819959" style="fill-opacity: 0; stroke: #000000"/>
     <use xlink:href="#m8a5072f3fa" x="150.784271" y="252.630606" style="fill-opacity: 0; stroke: #000000"/>
     <use xlink:href="#m8a5072f3fa" x="150.784271" y="227.109671" style="fill-opacity: 0; stroke: #000000"/>
     <use xlink:href="#m8a5072f3fa" x="150.784271" y="263.896796" style="fill-opacity: 0; stroke: #000000"/>
     <use xlink:href="#m8a5072f3fa" x="150.784271" y="200.227822" style="fill-opacity: 0; stroke: #000000"/>
     <use xlink:href="#m8a5072f3fa" x="150.784271" y="189.454168" style="fill-opacity: 0; stroke: #000000"/>
     <use xlink:href="#m8a5072f3fa" x="150.784271" y="192.398775" style="fill-opacity: 0; stroke: #000000"/>
     <use xlink:href="#m8a5072f3fa" x="150.784271" y="234.937203" style="fill-opacity: 0; stroke: #000000"/>
     <use xlink:href="#m8a5072f3fa" x="150.784271" y="280.582395" style="fill-opacity: 0; stroke: #000000"/>
     <use xlink:href="#m8a5072f3fa" x="150.784271" y="201.194707" style="fill-opacity: 0; stroke: #000000"/>
     <use xlink:href="#m8a5072f3fa" x="150.784271" y="219.598878" style="fill-opacity: 0; stroke: #000000"/>
     <use xlink:href="#m8a5072f3fa" x="150.784271" y="184.139327" style="fill-opacity: 0; stroke: #000000"/>
     <use xlink:href="#m8a5072f3fa" x="150.784271" y="234.284024" style="fill-opacity: 0; stroke: #000000"/>
     <use xlink:href="#m8a5072f3fa" x="150.784271" y="239.423068" style="fill-opacity: 0; stroke: #000000"/>
     <use xlink:href="#m8a5072f3fa" x="150.784271" y="290.092126" style="fill-opacity: 0; stroke: #000000"/>
     <use xlink:href="#m8a5072f3fa" x="150.784271" y="189.499633" style="fill-opacity: 0; stroke: #000000"/>
     <use xlink:href="#m8a5072f3fa" x="150.784271" y="246.903551" style="fill-opacity: 0; stroke: #000000"/>
     <use xlink:href="#m8a5072f3fa" x="150.784271" y="282.637406" style="fill-opacity: 0; stroke: #000000"/>
     <use xlink:href="#m8a5072f3fa" x="150.784271" y="197.163491" style="fill-opacity: 0; stroke: #000000"/>
     <use xlink:href="#m8a5072f3fa" x="150.784271" y="191.994138" style="fill-opacity: 0; stroke: #000000"/>
     <use xlink:href="#m8a5072f3fa" x="150.784271" y="267.206637" style="fill-opacity: 0; stroke: #000000"/>
     <use xlink:href="#m8a5072f3fa" x="150.784271" y="249.276816" style="fill-opacity: 0; stroke: #000000"/>
     <use xlink:href="#m8a5072f3fa" x="150.784271" y="284.630282" style="fill-opacity: 0; stroke: #000000"/>
     <use xlink:href="#m8a5072f3fa" x="150.784271" y="178.848734" style="fill-opacity: 0; stroke: #000000"/>
     <use xlink:href="#m8a5072f3fa" x="150.784271" y="276.502683" style="fill-opacity: 0; stroke: #000000"/>
     <use xlink:href="#m8a5072f3fa" x="150.784271" y="251.304548" style="fill-opacity: 0; stroke: #000000"/>
     <use xlink:href="#m8a5072f3fa" x="150.784271" y="294.888668" style="fill-opacity: 0; stroke: #000000"/>
     <use xlink:href="#m8a5072f3fa" x="150.784271" y="243.376994" style="fill-opacity: 0; stroke: #000000"/>
     <use xlink:href="#m8a5072f3fa" x="150.784271" y="213.415659" style="fill-opacity: 0; stroke: #000000"/>
     <use xlink:href="#m8a5072f3fa" x="150.784271" y="196.546684" style="fill-opacity: 0; stroke: #000000"/>
     <use xlink:href="#m8a5072f3fa" x="150.784271" y="298.35612" style="fill-opacity: 0; stroke: #000000"/>
     <use xlink:href="#m8a5072f3fa" x="150.784271" y="237.683279" style="fill-opacity: 0; stroke: #000000"/>
     <use xlink:href="#m8a5072f3fa" x="150.784271" y="300.665734" style="fill-opacity: 0; stroke: #000000"/>
     <use xlink:href="#m8a5072f3fa" x="150.784271" y="203.01027" style="fill-opacity: 0; stroke: #000000"/>
     <use xlink:href="#m8a5072f3fa" x="150.784271" y="252.600296" style="fill-opacity: 0; stroke: #000000"/>
     <use xlink:href="#m8a5072f3fa" x="150.784271" y="207.471888" style="fill-opacity: 0; stroke: #000000"/>
     <use xlink:href="#m8a5072f3fa" x="150.784271" y="231.253034" style="fill-opacity: 0; stroke: #000000"/>
     <use xlink:href="#m8a5072f3fa" x="150.784271" y="193.270184" style="fill-opacity: 0; stroke: #000000"/>
     <use xlink:href="#m8a5072f3fa" x="150.784271" y="183.552831" style="fill-opacity: 0; stroke: #000000"/>
     <use xlink:href="#m8a5072f3fa" x="150.784271" y="266.659543" style="fill-opacity: 0; stroke: #000000"/>
     <use xlink:href="#m8a5072f3fa" x="150.784271" y="290.574054" style="fill-opacity: 0; stroke: #000000"/>
     <use xlink:href="#m8a5072f3fa" x="150.784271" y="233.392913" style="fill-opacity: 0; stroke: #000000"/>
     <use xlink:href="#m8a5072f3fa" x="150.784271" y="199.206378" style="fill-opacity: 0; stroke: #000000"/>
     <use xlink:href="#m8a5072f3fa" x="150.784271" y="276.775472" style="fill-opacity: 0; stroke: #000000"/>
     <use xlink:href="#m8a5072f3fa" x="150.784271" y="304.574196" style="fill-opacity: 0; stroke: #000000"/>
     <use xlink:href="#m8a5072f3fa" x="150.784271" y="206.136736" style="fill-opacity: 0; stroke: #000000"/>
     <use xlink:href="#m8a5072f3fa" x="150.784271" y="300.573289" style="fill-opacity: 0; stroke: #000000"/>
     <use xlink:href="#m8a5072f3fa" x="150.784271" y="232.068371" style="fill-opacity: 0; stroke: #000000"/>
     <use xlink:href="#m8a5072f3fa" x="150.784271" y="239.835282" style="fill-opacity: 0; stroke: #000000"/>
     <use xlink:href="#m8a5072f3fa" x="150.784271" y="212.032012" style="fill-opacity: 0; stroke: #000000"/>
     <use xlink:href="#m8a5072f3fa" x="150.784271" y="284.831843" style="fill-opacity: 0; stroke: #000000"/>
     <use xlink:href="#m8a5072f3fa" x="150.784271" y="237.845437" style="fill-opacity: 0; stroke: #000000"/>
     <use xlink:href="#m8a5072f3fa" x="150.784271" y="259.235133" style="fill-opacity: 0; stroke: #000000"/>
     <use xlink:href="#m8a5072f3fa" x="150.784271" y="292.641189" style="fill-opacity: 0; stroke: #000000"/>
     <use xlink:href="#m8a5072f3fa" x="150.784271" y="208.578199" style="fill-opacity: 0; stroke: #000000"/>
     <use xlink:href="#m8a5072f3fa" x="150.784271" y="200.123252" style="fill-opacity: 0; stroke: #000000"/>
     <use xlink:href="#m8a5072f3fa" x="150.784271" y="295.241778" style="fill-opacity: 0; stroke: #000000"/>
     <use xlink:href="#m8a5072f3fa" x="150.784271" y="197.969734" style="fill-opacity: 0; stroke: #000000"/>
     <use xlink:href="#m8a5072f3fa" x="150.784271" y="253.000387" style="fill-opacity: 0; stroke: #000000"/>
     <use xlink:href="#m8a5072f3fa" x="150.784271" y="192.115377" style="fill-opacity: 0; stroke: #000000"/>
     <use xlink:href="#m8a5072f3fa" x="150.784271" y="203.223955" style="fill-opacity: 0; stroke: #000000"/>
     <use xlink:href="#m8a5072f3fa" x="150.784271" y="288.661499" style="fill-opacity: 0; stroke: #000000"/>
     <use xlink:href="#m8a5072f3fa" x="150.784271" y="267.497612" style="fill-opacity: 0; stroke: #000000"/>
     <use xlink:href="#m8a5072f3fa" x="150.784271" y="300.897605" style="fill-opacity: 0; stroke: #000000"/>
     <use xlink:href="#m8a5072f3fa" x="150.784271" y="248.855508" style="fill-opacity: 0; stroke: #000000"/>
     <use xlink:href="#m8a5072f3fa" x="150.784271" y="207.152118" style="fill-opacity: 0; stroke: #000000"/>
     <use xlink:href="#m8a5072f3fa" x="150.784271" y="182.391961" style="fill-opacity: 0; stroke: #000000"/>
     <use xlink:href="#m8a5072f3fa" x="150.784271" y="286.442814" style="fill-opacity: 0; stroke: #000000"/>
     <use xlink:href="#m8a5072f3fa" x="150.784271" y="272.280514" style="fill-opacity: 0; stroke: #000000"/>
     <use xlink:href="#m8a5072f3fa" x="150.784271" y="253.620224" style="fill-opacity: 0; stroke: #000000"/>
     <use xlink:href="#m8a5072f3fa" x="150.784271" y="278.372804" style="fill-opacity: 0; stroke: #000000"/>
     <use xlink:href="#m8a5072f3fa" x="150.784271" y="211.431876" style="fill-opacity: 0; stroke: #000000"/>
     <use xlink:href="#m8a5072f3fa" x="150.784271" y="307.929502" style="fill-opacity: 0; stroke: #000000"/>
     <use xlink:href="#m8a5072f3fa" x="150.784271" y="291.945576" style="fill-opacity: 0; stroke: #000000"/>
     <use xlink:href="#m8a5072f3fa" x="150.784271" y="221.296233" style="fill-opacity: 0; stroke: #000000"/>
     <use xlink:href="#m8a5072f3fa" x="150.784271" y="279.1745" style="fill-opacity: 0; stroke: #000000"/>
     <use xlink:href="#m8a5072f3fa" x="150.784271" y="206.218573" style="fill-opacity: 0; stroke: #000000"/>
     <use xlink:href="#m8a5072f3fa" x="150.784271" y="256.142008" style="fill-opacity: 0; stroke: #000000"/>
     <use xlink:href="#m8a5072f3fa" x="150.784271" y="302.604052" style="fill-opacity: 0; stroke: #000000"/>
     <use xlink:href="#m8a5072f3fa" x="150.784271" y="272.891258" style="fill-opacity: 0; stroke: #000000"/>
     <use xlink:href="#m8a5072f3fa" x="150.784271" y="300.415678" style="fill-opacity: 0; stroke: #000000"/>
     <use xlink:href="#m8a5072f3fa" x="150.784271" y="249.969397" style="fill-opacity: 0; stroke: #000000"/>
     <use xlink:href="#m8a5072f3fa" x="150.784271" y="209.434453" style="fill-opacity: 0; stroke: #000000"/>
     <use xlink:href="#m8a5072f3fa" x="150.784271" y="256.36327" style="fill-opacity: 0; stroke: #000000"/>
     <use xlink:href="#m8a5072f3fa" x="150.784271" y="206.741419" style="fill-opacity: 0; stroke: #000000"/>
     <use xlink:href="#m8a5072f3fa" x="150.784271" y="247.105112" style="fill-opacity: 0; stroke: #000000"/>
     <use xlink:href="#m8a5072f3fa" x="150.784271" y="194.044602" style="fill-opacity: 0; stroke: #000000"/>
     <use xlink:href="#m8a5072f3fa" x="150.784271" y="198.241008" style="fill-opacity: 0; stroke: #000000"/>
     <use xlink:href="#m8a5072f3fa" x="150.784271" y="240.418748" style="fill-opacity: 0; stroke: #000000"/>
     <use xlink:href="#m8a5072f3fa" x="150.784271" y="182.611708" style="fill-opacity: 0; stroke: #000000"/>
     <use xlink:href="#m8a5072f3fa" x="150.784271" y="287.835554" style="fill-opacity: 0; stroke: #000000"/>
     <use xlink:href="#m8a5072f3fa" x="150.784271" y="285.648695" style="fill-opacity: 0; stroke: #000000"/>
     <use xlink:href="#m8a5072f3fa" x="150.784271" y="296.908822" style="fill-opacity: 0; stroke: #000000"/>
     <use xlink:href="#m8a5072f3fa" x="150.784271" y="203.595251" style="fill-opacity: 0; stroke: #000000"/>
     <use xlink:href="#m8a5072f3fa" x="150.784271" y="283.057199" style="fill-opacity: 0; stroke: #000000"/>
     <use xlink:href="#m8a5072f3fa" x="150.784271" y="246.063967" style="fill-opacity: 0; stroke: #000000"/>
     <use xlink:href="#m8a5072f3fa" x="150.784271" y="188.070521" style="fill-opacity: 0; stroke: #000000"/>
     <use xlink:href="#m8a5072f3fa" x="150.784271" y="233.76421" style="fill-opacity: 0; stroke: #000000"/>
     <use xlink:href="#m8a5072f3fa" x="150.784271" y="303.949812" style="fill-opacity: 0; stroke: #000000"/>
     <use xlink:href="#m8a5072f3fa" x="150.784271" y="271.109036" style="fill-opacity: 0; stroke: #000000"/>
     <use xlink:href="#m8a5072f3fa" x="150.784271" y="183.813496" style="fill-opacity: 0; stroke: #000000"/>
     <use xlink:href="#m8a5072f3fa" x="150.784271" y="262.59347" style="fill-opacity: 0; stroke: #000000"/>
     <use xlink:href="#m8a5072f3fa" x="150.784271" y="289.752655" style="fill-opacity: 0; stroke: #000000"/>
     <use xlink:href="#m8a5072f3fa" x="150.784271" y="200.51425" style="fill-opacity: 0; stroke: #000000"/>
     <use xlink:href="#m8a5072f3fa" x="150.784271" y="191.259122" style="fill-opacity: 0; stroke: #000000"/>
     <use xlink:href="#m8a5072f3fa" x="150.784271" y="242.960233" style="fill-opacity: 0; stroke: #000000"/>
     <use xlink:href="#m8a5072f3fa" x="150.784271" y="304.00437" style="fill-opacity: 0; stroke: #000000"/>
     <use xlink:href="#m8a5072f3fa" x="150.784271" y="305.99573" style="fill-opacity: 0; stroke: #000000"/>
     <use xlink:href="#m8a5072f3fa" x="150.784271" y="287.165705" style="fill-opacity: 0; stroke: #000000"/>
     <use xlink:href="#m8a5072f3fa" x="150.784271" y="175.244887" style="fill-opacity: 0; stroke: #000000"/>
     <use xlink:href="#m8a5072f3fa" x="150.784271" y="231.124217" style="fill-opacity: 0; stroke: #000000"/>
     <use xlink:href="#m8a5072f3fa" x="150.784271" y="278.428877" style="fill-opacity: 0; stroke: #000000"/>
     <use xlink:href="#m8a5072f3fa" x="150.784271" y="308.149249" style="fill-opacity: 0; stroke: #000000"/>
     <use xlink:href="#m8a5072f3fa" x="150.784271" y="242.364643" style="fill-opacity: 0; stroke: #000000"/>
    </g>
   </g>
   <g id="patch_4">
    <path d="M 294.652938 443.382168 
L 417.968937 443.382168 
L 417.968937 388.836852 
L 294.652938 388.836852 
L 294.652938 443.382168 
z
" clip-path="url(#pc7bd5861df)" style="fill: #f4d58d; opacity: 0.75; stroke: #000000; stroke-width: 1.5; stroke-linejoin: miter"/>
   </g>
   <g id="line2d_30">
    <path d="M 356.310938 443.382168 
L 356.310938 521.270273 
" clip-path="url(#pc7bd5861df)" style="fill: none; stroke: #000000; stroke-width: 1.5; stroke-linecap: square"/>
   </g>
   <g id="line2d_31">
    <path d="M 356.310938 388.836852 
L 356.310938 310.91048 
" clip-path="url(#pc7bd5861df)" style="fill: none; stroke: #000000; stroke-width: 1.5; stroke-linecap: square"/>
   </g>
   <g id="line2d_32">
    <path d="M 325.481937 521.270273 
L 387.139937 521.270273 
" clip-path="url(#pc7bd5861df)" style="fill: none; stroke: #000000; stroke-width: 1.5; stroke-linecap: square"/>
   </g>
   <g id="line2d_33">
    <path d="M 325.481937 310.91048 
L 387.139937 310.91048 
" clip-path="url(#pc7bd5861df)" style="fill: none; stroke: #000000; stroke-width: 1.5; stroke-linecap: square"/>
   </g>
   <g id="line2d_34">
    <g clip-path="url(#pc7bd5861df)">
     <use xlink:href="#m8a5072f3fa" x="356.310938" y="529.563062" style="fill-opacity: 0; stroke: #000000"/>
     <use xlink:href="#m8a5072f3fa" x="356.310938" y="531.30285" style="fill-opacity: 0; stroke: #000000"/>
     <use xlink:href="#m8a5072f3fa" x="356.310938" y="541.324818" style="fill-opacity: 0; stroke: #000000"/>
     <use xlink:href="#m8a5072f3fa" x="356.310938" y="528.280953" style="fill-opacity: 0; stroke: #000000"/>
     <use xlink:href="#m8a5072f3fa" x="356.310938" y="539.378923" style="fill-opacity: 0; stroke: #000000"/>
     <use xlink:href="#m8a5072f3fa" x="356.310938" y="542.153794" style="fill-opacity: 0; stroke: #000000"/>
     <use xlink:href="#m8a5072f3fa" x="356.310938" y="540.695888" style="fill-opacity: 0; stroke: #000000"/>
     <use xlink:href="#m8a5072f3fa" x="356.310938" y="571.039128" style="fill-opacity: 0; stroke: #000000"/>
     <use xlink:href="#m8a5072f3fa" x="356.310938" y="549.91919" style="fill-opacity: 0; stroke: #000000"/>
     <use xlink:href="#m8a5072f3fa" x="356.310938" y="529.943451" style="fill-opacity: 0; stroke: #000000"/>
     <use xlink:href="#m8a5072f3fa" x="356.310938" y="532.647094" style="fill-opacity: 0; stroke: #000000"/>
     <use xlink:href="#m8a5072f3fa" x="356.310938" y="552.096956" style="fill-opacity: 0; stroke: #000000"/>
     <use xlink:href="#m8a5072f3fa" x="356.310938" y="541.938594" style="fill-opacity: 0; stroke: #000000"/>
     <use xlink:href="#m8a5072f3fa" x="356.310938" y="197.686337" style="fill-opacity: 0; stroke: #000000"/>
     <use xlink:href="#m8a5072f3fa" x="356.310938" y="222.858708" style="fill-opacity: 0; stroke: #000000"/>
     <use xlink:href="#m8a5072f3fa" x="356.310938" y="244.427232" style="fill-opacity: 0; stroke: #000000"/>
     <use xlink:href="#m8a5072f3fa" x="356.310938" y="236.481492" style="fill-opacity: 0; stroke: #000000"/>
     <use xlink:href="#m8a5072f3fa" x="356.310938" y="193.189863" style="fill-opacity: 0; stroke: #000000"/>
     <use xlink:href="#m8a5072f3fa" x="356.310938" y="187.186987" style="fill-opacity: 0; stroke: #000000"/>
     <use xlink:href="#m8a5072f3fa" x="356.310938" y="198.957837" style="fill-opacity: 0; stroke: #000000"/>
     <use xlink:href="#m8a5072f3fa" x="356.310938" y="196.50122" style="fill-opacity: 0; stroke: #000000"/>
     <use xlink:href="#m8a5072f3fa" x="356.310938" y="246.545894" style="fill-opacity: 0; stroke: #000000"/>
     <use xlink:href="#m8a5072f3fa" x="356.310938" y="201.456888" style="fill-opacity: 0; stroke: #000000"/>
     <use xlink:href="#m8a5072f3fa" x="356.310938" y="283.129942" style="fill-opacity: 0; stroke: #000000"/>
     <use xlink:href="#m8a5072f3fa" x="356.310938" y="294.002103" style="fill-opacity: 0; stroke: #000000"/>
     <use xlink:href="#m8a5072f3fa" x="356.310938" y="237.161949" style="fill-opacity: 0; stroke: #000000"/>
     <use xlink:href="#m8a5072f3fa" x="356.310938" y="287.796151" style="fill-opacity: 0; stroke: #000000"/>
     <use xlink:href="#m8a5072f3fa" x="356.310938" y="287.891627" style="fill-opacity: 0; stroke: #000000"/>
     <use xlink:href="#m8a5072f3fa" x="356.310938" y="234.568937" style="fill-opacity: 0; stroke: #000000"/>
     <use xlink:href="#m8a5072f3fa" x="356.310938" y="242.158536" style="fill-opacity: 0; stroke: #000000"/>
     <use xlink:href="#m8a5072f3fa" x="356.310938" y="277.924217" style="fill-opacity: 0; stroke: #000000"/>
     <use xlink:href="#m8a5072f3fa" x="356.310938" y="184.234803" style="fill-opacity: 0; stroke: #000000"/>
     <use xlink:href="#m8a5072f3fa" x="356.310938" y="209.454155" style="fill-opacity: 0; stroke: #000000"/>
     <use xlink:href="#m8a5072f3fa" x="356.310938" y="265.780556" style="fill-opacity: 0; stroke: #000000"/>
     <use xlink:href="#m8a5072f3fa" x="356.310938" y="210.140674" style="fill-opacity: 0; stroke: #000000"/>
     <use xlink:href="#m8a5072f3fa" x="356.310938" y="258.41222" style="fill-opacity: 0; stroke: #000000"/>
     <use xlink:href="#m8a5072f3fa" x="356.310938" y="207.288513" style="fill-opacity: 0; stroke: #000000"/>
     <use xlink:href="#m8a5072f3fa" x="356.310938" y="192.518499" style="fill-opacity: 0; stroke: #000000"/>
     <use xlink:href="#m8a5072f3fa" x="356.310938" y="297.240716" style="fill-opacity: 0; stroke: #000000"/>
     <use xlink:href="#m8a5072f3fa" x="356.310938" y="285.318317" style="fill-opacity: 0; stroke: #000000"/>
     <use xlink:href="#m8a5072f3fa" x="356.310938" y="186.151904" style="fill-opacity: 0; stroke: #000000"/>
     <use xlink:href="#m8a5072f3fa" x="356.310938" y="286.227614" style="fill-opacity: 0; stroke: #000000"/>
     <use xlink:href="#m8a5072f3fa" x="356.310938" y="196.346639" style="fill-opacity: 0; stroke: #000000"/>
     <use xlink:href="#m8a5072f3fa" x="356.310938" y="193.42628" style="fill-opacity: 0; stroke: #000000"/>
     <use xlink:href="#m8a5072f3fa" x="356.310938" y="260.248999" style="fill-opacity: 0; stroke: #000000"/>
     <use xlink:href="#m8a5072f3fa" x="356.310938" y="211.572817" style="fill-opacity: 0; stroke: #000000"/>
     <use xlink:href="#m8a5072f3fa" x="356.310938" y="244.709114" style="fill-opacity: 0; stroke: #000000"/>
     <use xlink:href="#m8a5072f3fa" x="356.310938" y="202.035807" style="fill-opacity: 0; stroke: #000000"/>
     <use xlink:href="#m8a5072f3fa" x="356.310938" y="298.957772" style="fill-opacity: 0; stroke: #000000"/>
     <use xlink:href="#m8a5072f3fa" x="356.310938" y="292.059239" style="fill-opacity: 0; stroke: #000000"/>
     <use xlink:href="#m8a5072f3fa" x="356.310938" y="260.95522" style="fill-opacity: 0; stroke: #000000"/>
     <use xlink:href="#m8a5072f3fa" x="356.310938" y="185.727566" style="fill-opacity: 0; stroke: #000000"/>
     <use xlink:href="#m8a5072f3fa" x="356.310938" y="288.256862" style="fill-opacity: 0; stroke: #000000"/>
     <use xlink:href="#m8a5072f3fa" x="356.310938" y="275.535797" style="fill-opacity: 0; stroke: #000000"/>
     <use xlink:href="#m8a5072f3fa" x="356.310938" y="198.998755" style="fill-opacity: 0; stroke: #000000"/>
     <use xlink:href="#m8a5072f3fa" x="356.310938" y="215.038754" style="fill-opacity: 0; stroke: #000000"/>
     <use xlink:href="#m8a5072f3fa" x="356.310938" y="240.964326" style="fill-opacity: 0; stroke: #000000"/>
     <use xlink:href="#m8a5072f3fa" x="356.310938" y="221.914554" style="fill-opacity: 0; stroke: #000000"/>
     <use xlink:href="#m8a5072f3fa" x="356.310938" y="232.32752" style="fill-opacity: 0; stroke: #000000"/>
     <use xlink:href="#m8a5072f3fa" x="356.310938" y="186.645956" style="fill-opacity: 0; stroke: #000000"/>
     <use xlink:href="#m8a5072f3fa" x="356.310938" y="245.87453" style="fill-opacity: 0; stroke: #000000"/>
     <use xlink:href="#m8a5072f3fa" x="356.310938" y="194.885702" style="fill-opacity: 0; stroke: #000000"/>
     <use xlink:href="#m8a5072f3fa" x="356.310938" y="180.12175" style="fill-opacity: 0; stroke: #000000"/>
     <use xlink:href="#m8a5072f3fa" x="356.310938" y="237.095267" style="fill-opacity: 0; stroke: #000000"/>
     <use xlink:href="#m8a5072f3fa" x="356.310938" y="189.310196" style="fill-opacity: 0; stroke: #000000"/>
     <use xlink:href="#m8a5072f3fa" x="356.310938" y="255.082677" style="fill-opacity: 0; stroke: #000000"/>
    </g>
   </g>
   <g id="patch_5">
    <path d="M 500.179604 497.581951 
L 623.495604 497.581951 
L 623.495604 419.835544 
L 500.179604 419.835544 
L 500.179604 497.581951 
z
" clip-path="url(#pc7bd5861df)" style="fill: #f7a1b7; opacity: 0.75; stroke: #000000; stroke-width: 1.5; stroke-linejoin: miter"/>
   </g>
   <g id="line2d_35">
    <path d="M 561.837604 497.581951 
L 561.837604 611.821097 
" clip-path="url(#pc7bd5861df)" style="fill: none; stroke: #000000; stroke-width: 1.5; stroke-linecap: square"/>
   </g>
   <g id="line2d_36">
    <path d="M 561.837604 419.835544 
L 561.837604 304.28019 
" clip-path="url(#pc7bd5861df)" style="fill: none; stroke: #000000; stroke-width: 1.5; stroke-linecap: square"/>
   </g>
   <g id="line2d_37">
    <path d="M 531.008604 611.821097 
L 592.666604 611.821097 
" clip-path="url(#pc7bd5861df)" style="fill: none; stroke: #000000; stroke-width: 1.5; stroke-linecap: square"/>
   </g>
   <g id="line2d_38">
    <path d="M 531.008604 304.28019 
L 592.666604 304.28019 
" clip-path="url(#pc7bd5861df)" style="fill: none; stroke: #000000; stroke-width: 1.5; stroke-linecap: square"/>
   </g>
   <g id="line2d_39">
    <g clip-path="url(#pc7bd5861df)">
     <use xlink:href="#m8a5072f3fa" x="561.837604" y="637.399621" style="fill-opacity: 0; stroke: #000000"/>
     <use xlink:href="#m8a5072f3fa" x="561.837604" y="652.575788" style="fill-opacity: 0; stroke: #000000"/>
     <use xlink:href="#m8a5072f3fa" x="561.837604" y="630.666277" style="fill-opacity: 0; stroke: #000000"/>
     <use xlink:href="#m8a5072f3fa" x="561.837604" y="617.802756" style="fill-opacity: 0; stroke: #000000"/>
     <use xlink:href="#m8a5072f3fa" x="561.837604" y="649.593293" style="fill-opacity: 0; stroke: #000000"/>
     <use xlink:href="#m8a5072f3fa" x="561.837604" y="638.34529" style="fill-opacity: 0; stroke: #000000"/>
     <use xlink:href="#m8a5072f3fa" x="561.837604" y="631.078492" style="fill-opacity: 0; stroke: #000000"/>
     <use xlink:href="#m8a5072f3fa" x="561.837604" y="647.350361" style="fill-opacity: 0; stroke: #000000"/>
     <use xlink:href="#m8a5072f3fa" x="561.837604" y="669.572064" style="fill-opacity: 0; stroke: #000000"/>
     <use xlink:href="#m8a5072f3fa" x="561.837604" y="186.70506" style="fill-opacity: 0; stroke: #000000"/>
     <use xlink:href="#m8a5072f3fa" x="561.837604" y="189.676946" style="fill-opacity: 0; stroke: #000000"/>
     <use xlink:href="#m8a5072f3fa" x="561.837604" y="206.538343" style="fill-opacity: 0; stroke: #000000"/>
     <use xlink:href="#m8a5072f3fa" x="561.837604" y="192.338155" style="fill-opacity: 0; stroke: #000000"/>
     <use xlink:href="#m8a5072f3fa" x="561.837604" y="264.822763" style="fill-opacity: 0; stroke: #000000"/>
     <use xlink:href="#m8a5072f3fa" x="561.837604" y="280.242924" style="fill-opacity: 0; stroke: #000000"/>
     <use xlink:href="#m8a5072f3fa" x="561.837604" y="205.453248" style="fill-opacity: 0; stroke: #000000"/>
     <use xlink:href="#m8a5072f3fa" x="561.837604" y="190.598367" style="fill-opacity: 0; stroke: #000000"/>
     <use xlink:href="#m8a5072f3fa" x="561.837604" y="206.902061" style="fill-opacity: 0; stroke: #000000"/>
     <use xlink:href="#m8a5072f3fa" x="561.837604" y="180.285423" style="fill-opacity: 0; stroke: #000000"/>
     <use xlink:href="#m8a5072f3fa" x="561.837604" y="220.652147" style="fill-opacity: 0; stroke: #000000"/>
     <use xlink:href="#m8a5072f3fa" x="561.837604" y="206.289801" style="fill-opacity: 0; stroke: #000000"/>
     <use xlink:href="#m8a5072f3fa" x="561.837604" y="274.975064" style="fill-opacity: 0; stroke: #000000"/>
     <use xlink:href="#m8a5072f3fa" x="561.837604" y="170.078565" style="fill-opacity: 0; stroke: #000000"/>
     <use xlink:href="#m8a5072f3fa" x="561.837604" y="201.556911" style="fill-opacity: 0; stroke: #000000"/>
     <use xlink:href="#m8a5072f3fa" x="561.837604" y="264.018035" style="fill-opacity: 0; stroke: #000000"/>
     <use xlink:href="#m8a5072f3fa" x="561.837604" y="289.504114" style="fill-opacity: 0; stroke: #000000"/>
     <use xlink:href="#m8a5072f3fa" x="561.837604" y="184.718246" style="fill-opacity: 0; stroke: #000000"/>
     <use xlink:href="#m8a5072f3fa" x="561.837604" y="213.039816" style="fill-opacity: 0; stroke: #000000"/>
     <use xlink:href="#m8a5072f3fa" x="561.837604" y="283.136004" style="fill-opacity: 0; stroke: #000000"/>
     <use xlink:href="#m8a5072f3fa" x="561.837604" y="203.624046" style="fill-opacity: 0; stroke: #000000"/>
     <use xlink:href="#m8a5072f3fa" x="561.837604" y="189.131368" style="fill-opacity: 0; stroke: #000000"/>
    </g>
   </g>
   <g id="patch_6">
    <path d="M 705.706271 153.305446 
L 829.022271 153.305446 
L 829.022271 126.031841 
L 705.706271 126.031841 
L 705.706271 153.305446 
z
" clip-path="url(#pc7bd5861df)" style="fill: #8fc1a9; opacity: 0.75; stroke: #000000; stroke-width: 1.5; stroke-linejoin: miter"/>
   </g>
   <g id="line2d_40">
    <path d="M 767.364271 153.305446 
L 767.364271 192.807958 
" clip-path="url(#pc7bd5861df)" style="fill: none; stroke: #000000; stroke-width: 1.5; stroke-linecap: square"/>
   </g>
   <g id="line2d_41">
    <path d="M 767.364271 126.031841 
L 767.364271 125.154748 
" clip-path="url(#pc7bd5861df)" style="fill: none; stroke: #000000; stroke-width: 1.5; stroke-linecap: square"/>
   </g>
   <g id="line2d_42">
    <path d="M 736.535271 192.807958 
L 798.193271 192.807958 
" clip-path="url(#pc7bd5861df)" style="fill: none; stroke: #000000; stroke-width: 1.5; stroke-linecap: square"/>
   </g>
   <g id="line2d_43">
    <path d="M 736.535271 125.154748 
L 798.193271 125.154748 
" clip-path="url(#pc7bd5861df)" style="fill: none; stroke: #000000; stroke-width: 1.5; stroke-linecap: square"/>
   </g>
   <g id="line2d_44">
    <g clip-path="url(#pc7bd5861df)">
     <use xlink:href="#m8a5072f3fa" x="767.364271" y="198.291019" style="fill-opacity: 0; stroke: #000000"/>
     <use xlink:href="#m8a5072f3fa" x="767.364271" y="199.674666" style="fill-opacity: 0; stroke: #000000"/>
     <use xlink:href="#m8a5072f3fa" x="767.364271" y="194.582603" style="fill-opacity: 0; stroke: #000000"/>
     <use xlink:href="#m8a5072f3fa" x="767.364271" y="207.846215" style="fill-opacity: 0; stroke: #000000"/>
     <use xlink:href="#m8a5072f3fa" x="767.364271" y="198.056117" style="fill-opacity: 0; stroke: #000000"/>
     <use xlink:href="#m8a5072f3fa" x="767.364271" y="196.661862" style="fill-opacity: 0; stroke: #000000"/>
     <use xlink:href="#m8a5072f3fa" x="767.364271" y="195.555551" style="fill-opacity: 0; stroke: #000000"/>
     <use xlink:href="#m8a5072f3fa" x="767.364271" y="208.923732" style="fill-opacity: 0; stroke: #000000"/>
     <use xlink:href="#m8a5072f3fa" x="767.364271" y="194.350732" style="fill-opacity: 0; stroke: #000000"/>
     <use xlink:href="#m8a5072f3fa" x="767.364271" y="195.41461" style="fill-opacity: 0; stroke: #000000"/>
     <use xlink:href="#m8a5072f3fa" x="767.364271" y="195.143336" style="fill-opacity: 0; stroke: #000000"/>
     <use xlink:href="#m8a5072f3fa" x="767.364271" y="196.022323" style="fill-opacity: 0; stroke: #000000"/>
     <use xlink:href="#m8a5072f3fa" x="767.364271" y="199.771658" style="fill-opacity: 0; stroke: #000000"/>
     <use xlink:href="#m8a5072f3fa" x="767.364271" y="206.203418" style="fill-opacity: 0; stroke: #000000"/>
     <use xlink:href="#m8a5072f3fa" x="767.364271" y="230.421028" style="fill-opacity: 0; stroke: #000000"/>
    </g>
   </g>
   <g id="patch_7">
    <path d="M 911.232937 188.126973 
L 1034.548937 188.126973 
L 1034.548937 138.066386 
L 911.232937 138.066386 
L 911.232937 188.126973 
z
" clip-path="url(#pc7bd5861df)" style="fill: #f4d58d; opacity: 0.75; stroke: #000000; stroke-width: 1.5; stroke-linejoin: miter"/>
   </g>
   <g id="line2d_45">
    <path d="M 972.890938 188.126973 
L 972.890938 262.08881 
" clip-path="url(#pc7bd5861df)" style="fill: none; stroke: #000000; stroke-width: 1.5; stroke-linecap: square"/>
   </g>
   <g id="line2d_46">
    <path d="M 972.890938 138.066386 
L 972.890938 125.154748 
" clip-path="url(#pc7bd5861df)" style="fill: none; stroke: #000000; stroke-width: 1.5; stroke-linecap: square"/>
   </g>
   <g id="line2d_47">
    <path d="M 942.061938 262.08881 
L 1003.719938 262.08881 
" clip-path="url(#pc7bd5861df)" style="fill: none; stroke: #000000; stroke-width: 1.5; stroke-linecap: square"/>
   </g>
   <g id="line2d_48">
    <path d="M 942.061938 125.154748 
L 1003.719938 125.154748 
" clip-path="url(#pc7bd5861df)" style="fill: none; stroke: #000000; stroke-width: 1.5; stroke-linecap: square"/>
   </g>
   <g id="line2d_49">
    <g clip-path="url(#pc7bd5861df)">
     <use xlink:href="#m8a5072f3fa" x="972.890938" y="277.540797" style="fill-opacity: 0; stroke: #000000"/>
     <use xlink:href="#m8a5072f3fa" x="972.890938" y="322.734372" style="fill-opacity: 0; stroke: #000000"/>
     <use xlink:href="#m8a5072f3fa" x="972.890938" y="313.051875" style="fill-opacity: 0; stroke: #000000"/>
     <use xlink:href="#m8a5072f3fa" x="972.890938" y="277.084633" style="fill-opacity: 0; stroke: #000000"/>
     <use xlink:href="#m8a5072f3fa" x="972.890938" y="269.29802" style="fill-opacity: 0; stroke: #000000"/>
     <use xlink:href="#m8a5072f3fa" x="972.890938" y="273.511096" style="fill-opacity: 0; stroke: #000000"/>
     <use xlink:href="#m8a5072f3fa" x="972.890938" y="275.082664" style="fill-opacity: 0; stroke: #000000"/>
    </g>
   </g>
   <g id="patch_8">
    <path d="M 1116.759604 239.77542 
L 1240.075604 239.77542 
L 1240.075604 158.567244 
L 1116.759604 158.567244 
L 1116.759604 239.77542 
z
" clip-path="url(#pc7bd5861df)" style="fill: #f7a1b7; opacity: 0.75; stroke: #000000; stroke-width: 1.5; stroke-linejoin: miter"/>
   </g>
   <g id="line2d_50">
    <path d="M 1178.417604 239.77542 
L 1178.417604 361.584085 
" clip-path="url(#pc7bd5861df)" style="fill: none; stroke: #000000; stroke-width: 1.5; stroke-linecap: square"/>
   </g>
   <g id="line2d_51">
    <path d="M 1178.417604 158.567244 
L 1178.417604 125.154748 
" clip-path="url(#pc7bd5861df)" style="fill: none; stroke: #000000; stroke-width: 1.5; stroke-linecap: square"/>
   </g>
   <g id="line2d_52">
    <path d="M 1147.588604 361.584085 
L 1209.246604 361.584085 
" clip-path="url(#pc7bd5861df)" style="fill: none; stroke: #000000; stroke-width: 1.5; stroke-linecap: square"/>
   </g>
   <g id="line2d_53">
    <path d="M 1147.588604 125.154748 
L 1209.246604 125.154748 
" clip-path="url(#pc7bd5861df)" style="fill: none; stroke: #000000; stroke-width: 1.5; stroke-linecap: square"/>
   </g>
   <g id="line2d_54">
    <g clip-path="url(#pc7bd5861df)">
     <use xlink:href="#m8a5072f3fa" x="1178.417604" y="375.326594" style="fill-opacity: 0; stroke: #000000"/>
     <use xlink:href="#m8a5072f3fa" x="1178.417604" y="502.426609" style="fill-opacity: 0; stroke: #000000"/>
     <use xlink:href="#m8a5072f3fa" x="1178.417604" y="370.116322" style="fill-opacity: 0; stroke: #000000"/>
     <use xlink:href="#m8a5072f3fa" x="1178.417604" y="385.110629" style="fill-opacity: 0; stroke: #000000"/>
     <use xlink:href="#m8a5072f3fa" x="1178.417604" y="382.791922" style="fill-opacity: 0; stroke: #000000"/>
     <use xlink:href="#m8a5072f3fa" x="1178.417604" y="368.823605" style="fill-opacity: 0; stroke: #000000"/>
     <use xlink:href="#m8a5072f3fa" x="1178.417604" y="373.365543" style="fill-opacity: 0; stroke: #000000"/>
     <use xlink:href="#m8a5072f3fa" x="1178.417604" y="399.356282" style="fill-opacity: 0; stroke: #000000"/>
     <use xlink:href="#m8a5072f3fa" x="1178.417604" y="364.328647" style="fill-opacity: 0; stroke: #000000"/>
     <use xlink:href="#m8a5072f3fa" x="1178.417604" y="394.567318" style="fill-opacity: 0; stroke: #000000"/>
     <use xlink:href="#m8a5072f3fa" x="1178.417604" y="389.685908" style="fill-opacity: 0; stroke: #000000"/>
     <use xlink:href="#m8a5072f3fa" x="1178.417604" y="400.327714" style="fill-opacity: 0; stroke: #000000"/>
     <use xlink:href="#m8a5072f3fa" x="1178.417604" y="449.875306" style="fill-opacity: 0; stroke: #000000"/>
     <use xlink:href="#m8a5072f3fa" x="1178.417604" y="450.601228" style="fill-opacity: 0; stroke: #000000"/>
     <use xlink:href="#m8a5072f3fa" x="1178.417604" y="452.960854" style="fill-opacity: 0; stroke: #000000"/>
    </g>
   </g>
   <g id="line2d_55">
    <path d="M 664.600938 655.577983 
L 664.600938 49.38 
" clip-path="url(#pc7bd5861df)" style="fill: none; stroke-dasharray: 7.4,3.2; stroke-dashoffset: 0; stroke: #808080; stroke-opacity: 0.5; stroke-width: 2"/>
   </g>
   <g id="line2d_56">
    <path d="M 89.126271 378.036299 
L 212.442271 378.036299 
" clip-path="url(#pc7bd5861df)" style="fill: none; stroke: #000000; stroke-width: 2.5"/>
   </g>
   <g id="line2d_57">
    <defs>
     <path id="m6f10fcd2aa" d="M 0 5.656854 
L 5.656854 0 
L 0 -5.656854 
L -5.656854 0 
z
" style="stroke: #000000; stroke-linejoin: miter"/>
    </defs>
    <g clip-path="url(#pc7bd5861df)">
     <use xlink:href="#m6f10fcd2aa" x="150.784271" y="362.789854" style="fill: #9b4f5a; stroke: #000000; stroke-linejoin: miter"/>
    </g>
   </g>
   <g id="line2d_58">
    <path d="M 294.652938 414.122507 
L 417.968937 414.122507 
" clip-path="url(#pc7bd5861df)" style="fill: none; stroke: #000000; stroke-width: 2.5"/>
   </g>
   <g id="line2d_59">
    <g clip-path="url(#pc7bd5861df)">
     <use xlink:href="#m6f10fcd2aa" x="356.310938" y="411.029806" style="fill: #9b4f5a; stroke: #000000; stroke-linejoin: miter"/>
    </g>
   </g>
   <g id="line2d_60">
    <path d="M 500.179604 456.21841 
L 623.495604 456.21841 
" clip-path="url(#pc7bd5861df)" style="fill: none; stroke: #000000; stroke-width: 2.5"/>
   </g>
   <g id="line2d_61">
    <g clip-path="url(#pc7bd5861df)">
     <use xlink:href="#m6f10fcd2aa" x="561.837604" y="456.556932" style="fill: #9b4f5a; stroke: #000000; stroke-linejoin: miter"/>
    </g>
   </g>
   <g id="line2d_62">
    <path d="M 705.706271 140.60143 
L 829.022271 140.60143 
" clip-path="url(#pc7bd5861df)" style="fill: none; stroke: #000000; stroke-width: 2.5"/>
   </g>
   <g id="line2d_63">
    <g clip-path="url(#pc7bd5861df)">
     <use xlink:href="#m6f10fcd2aa" x="767.364271" y="143.053686" style="fill: #9b4f5a; stroke: #000000; stroke-linejoin: miter"/>
    </g>
   </g>
   <g id="line2d_64">
    <path d="M 911.232937 162.359391 
L 1034.548937 162.359391 
" clip-path="url(#pc7bd5861df)" style="fill: none; stroke: #000000; stroke-width: 2.5"/>
   </g>
   <g id="line2d_65">
    <g clip-path="url(#pc7bd5861df)">
     <use xlink:href="#m6f10fcd2aa" x="972.890938" y="167.243172" style="fill: #9b4f5a; stroke: #000000; stroke-linejoin: miter"/>
    </g>
   </g>
   <g id="line2d_66">
    <path d="M 1116.759604 196.548958 
L 1240.075604 196.548958 
" clip-path="url(#pc7bd5861df)" style="fill: none; stroke: #000000; stroke-width: 2.5"/>
   </g>
   <g id="line2d_67">
    <g clip-path="url(#pc7bd5861df)">
     <use xlink:href="#m6f10fcd2aa" x="1178.417604" y="205.503156" style="fill: #9b4f5a; stroke: #000000; stroke-linejoin: miter"/>
    </g>
   </g>
   <g id="patch_9">
    <path d="M 48.020938 655.577983 
L 48.020938 49.38 
" style="fill: none; stroke: #cccccc; stroke-linejoin: miter; stroke-linecap: square"/>
   </g>
   <g id="patch_10">
    <path d="M 48.020937 655.577983 
L 1281.180938 655.577983 
" style="fill: none; stroke: #cccccc; stroke-linejoin: miter; stroke-linecap: square"/>
   </g>
   <g id="text_18">
    <!-- Comparación de Configuraciones mediante Boxplots -->
    <g transform="translate(475.418125 18.119531) scale(0.15 -0.15)">
     <defs>
      <path id="Arial-BoldMT-6d" d="M 394 3319 
L 1203 3319 
L 1203 2866 
Q 1638 3394 2238 3394 
Q 2556 3394 2790 3262 
Q 3025 3131 3175 2866 
Q 3394 3131 3647 3262 
Q 3900 3394 4188 3394 
Q 4553 3394 4806 3245 
Q 5059 3097 5184 2809 
Q 5275 2597 5275 2122 
L 5275 0 
L 4397 0 
L 4397 1897 
Q 4397 2391 4306 2534 
Q 4184 2722 3931 2722 
Q 3747 2722 3584 2609 
Q 3422 2497 3350 2280 
Q 3278 2063 3278 1594 
L 3278 0 
L 2400 0 
L 2400 1819 
Q 2400 2303 2353 2443 
Q 2306 2584 2207 2653 
Q 2109 2722 1941 2722 
Q 1738 2722 1575 2612 
Q 1413 2503 1342 2297 
Q 1272 2091 1272 1613 
L 1272 0 
L 394 0 
L 394 3319 
z
" transform="scale(0.015625)"/>
      <path id="Arial-BoldMT-70" d="M 434 3319 
L 1253 3319 
L 1253 2831 
Q 1413 3081 1684 3237 
Q 1956 3394 2288 3394 
Q 2866 3394 3269 2941 
Q 3672 2488 3672 1678 
Q 3672 847 3265 386 
Q 2859 -75 2281 -75 
Q 2006 -75 1782 34 
Q 1559 144 1313 409 
L 1313 -1263 
L 434 -1263 
L 434 3319 
z
M 1303 1716 
Q 1303 1156 1525 889 
Q 1747 622 2066 622 
Q 2372 622 2575 867 
Q 2778 1113 2778 1672 
Q 2778 2194 2568 2447 
Q 2359 2700 2050 2700 
Q 1728 2700 1515 2451 
Q 1303 2203 1303 1716 
z
" transform="scale(0.015625)"/>
      <path id="Arial-BoldMT-73" d="M 150 947 
L 1031 1081 
Q 1088 825 1259 692 
Q 1431 559 1741 559 
Q 2081 559 2253 684 
Q 2369 772 2369 919 
Q 2369 1019 2306 1084 
Q 2241 1147 2013 1200 
Q 950 1434 666 1628 
Q 272 1897 272 2375 
Q 272 2806 612 3100 
Q 953 3394 1669 3394 
Q 2350 3394 2681 3172 
Q 3013 2950 3138 2516 
L 2309 2363 
Q 2256 2556 2107 2659 
Q 1959 2763 1684 2763 
Q 1338 2763 1188 2666 
Q 1088 2597 1088 2488 
Q 1088 2394 1175 2328 
Q 1294 2241 1995 2081 
Q 2697 1922 2975 1691 
Q 3250 1456 3250 1038 
Q 3250 581 2869 253 
Q 2488 -75 1741 -75 
Q 1063 -75 667 200 
Q 272 475 150 947 
z
" transform="scale(0.015625)"/>
      <path id="Arial-BoldMT-74" d="M 1981 3319 
L 1981 2619 
L 1381 2619 
L 1381 1281 
Q 1381 875 1398 808 
Q 1416 741 1477 697 
Q 1538 653 1625 653 
Q 1747 653 1978 738 
L 2053 56 
Q 1747 -75 1359 -75 
Q 1122 -75 931 4 
Q 741 84 652 211 
Q 563 338 528 553 
Q 500 706 500 1172 
L 500 2619 
L 97 2619 
L 97 3319 
L 500 3319 
L 500 3978 
L 1381 4491 
L 1381 3319 
L 1981 3319 
z
" transform="scale(0.015625)"/>
      <path id="Arial-BoldMT-42" d="M 469 4581 
L 2300 4581 
Q 2844 4581 3111 4536 
Q 3378 4491 3589 4347 
Q 3800 4203 3940 3964 
Q 4081 3725 4081 3428 
Q 4081 3106 3907 2837 
Q 3734 2569 3438 2434 
Q 3856 2313 4081 2019 
Q 4306 1725 4306 1328 
Q 4306 1016 4161 720 
Q 4016 425 3764 248 
Q 3513 72 3144 31 
Q 2913 6 2028 0 
L 469 0 
L 469 4581 
z
M 1394 3819 
L 1394 2759 
L 2000 2759 
Q 2541 2759 2672 2775 
Q 2909 2803 3045 2939 
Q 3181 3075 3181 3297 
Q 3181 3509 3064 3642 
Q 2947 3775 2716 3803 
Q 2578 3819 1925 3819 
L 1394 3819 
z
M 1394 1997 
L 1394 772 
L 2250 772 
Q 2750 772 2884 800 
Q 3091 838 3220 983 
Q 3350 1128 3350 1372 
Q 3350 1578 3250 1722 
Q 3150 1866 2961 1931 
Q 2772 1997 2141 1997 
L 1394 1997 
z
" transform="scale(0.015625)"/>
      <path id="Arial-BoldMT-78" d="M 38 0 
L 1234 1709 
L 88 3319 
L 1159 3319 
L 1747 2406 
L 2366 3319 
L 3397 3319 
L 2272 1747 
L 3500 0 
L 2422 0 
L 1747 1028 
L 1066 0 
L 38 0 
z
" transform="scale(0.015625)"/>
     </defs>
     <use xlink:href="#Arial-BoldMT-43"/>
     <use xlink:href="#Arial-BoldMT-6f" transform="translate(72.216797 0)"/>
     <use xlink:href="#Arial-BoldMT-6d" transform="translate(133.300781 0)"/>
     <use xlink:href="#Arial-BoldMT-70" transform="translate(222.216797 0)"/>
     <use xlink:href="#Arial-BoldMT-61" transform="translate(283.300781 0)"/>
     <use xlink:href="#Arial-BoldMT-72" transform="translate(338.916016 0)"/>
     <use xlink:href="#Arial-BoldMT-61" transform="translate(377.832031 0)"/>
     <use xlink:href="#Arial-BoldMT-63" transform="translate(433.447266 0)"/>
     <use xlink:href="#Arial-BoldMT-69" transform="translate(489.0625 0)"/>
     <use xlink:href="#Arial-BoldMT-f3" transform="translate(516.845703 0)"/>
     <use xlink:href="#Arial-BoldMT-6e" transform="translate(577.929688 0)"/>
     <use xlink:href="#Arial-BoldMT-20" transform="translate(639.013672 0)"/>
     <use xlink:href="#Arial-BoldMT-64" transform="translate(666.796875 0)"/>
     <use xlink:href="#Arial-BoldMT-65" transform="translate(727.880859 0)"/>
     <use xlink:href="#Arial-BoldMT-20" transform="translate(783.496094 0)"/>
     <use xlink:href="#Arial-BoldMT-43" transform="translate(811.279297 0)"/>
     <use xlink:href="#Arial-BoldMT-6f" transform="translate(883.496094 0)"/>
     <use xlink:href="#Arial-BoldMT-6e" transform="translate(944.580078 0)"/>
     <use xlink:href="#Arial-BoldMT-66" transform="translate(1005.664062 0)"/>
     <use xlink:href="#Arial-BoldMT-69" transform="translate(1038.964844 0)"/>
     <use xlink:href="#Arial-BoldMT-67" transform="translate(1066.748047 0)"/>
     <use xlink:href="#Arial-BoldMT-75" transform="translate(1127.832031 0)"/>
     <use xlink:href="#Arial-BoldMT-72" transform="translate(1188.916016 0)"/>
     <use xlink:href="#Arial-BoldMT-61" transform="translate(1227.832031 0)"/>
     <use xlink:href="#Arial-BoldMT-63" transform="translate(1283.447266 0)"/>
     <use xlink:href="#Arial-BoldMT-69" transform="translate(1339.0625 0)"/>
     <use xlink:href="#Arial-BoldMT-6f" transform="translate(1366.845703 0)"/>
     <use xlink:href="#Arial-BoldMT-6e" transform="translate(1427.929688 0)"/>
     <use xlink:href="#Arial-BoldMT-65" transform="translate(1489.013672 0)"/>
     <use xlink:href="#Arial-BoldMT-73" transform="translate(1544.628906 0)"/>
     <use xlink:href="#Arial-BoldMT-20" transform="translate(1600.244141 0)"/>
     <use xlink:href="#Arial-BoldMT-6d" transform="translate(1628.027344 0)"/>
     <use xlink:href="#Arial-BoldMT-65" transform="translate(1716.943359 0)"/>
     <use xlink:href="#Arial-BoldMT-64" transform="translate(1772.558594 0)"/>
     <use xlink:href="#Arial-BoldMT-69" transform="translate(1833.642578 0)"/>
     <use xlink:href="#Arial-BoldMT-61" transform="translate(1861.425781 0)"/>
     <use xlink:href="#Arial-BoldMT-6e" transform="translate(1917.041016 0)"/>
     <use xlink:href="#Arial-BoldMT-74" transform="translate(1978.125 0)"/>
     <use xlink:href="#Arial-BoldMT-65" transform="translate(2011.425781 0)"/>
     <use xlink:href="#Arial-BoldMT-20" transform="translate(2067.041016 0)"/>
     <use xlink:href="#Arial-BoldMT-42" transform="translate(2094.824219 0)"/>
     <use xlink:href="#Arial-BoldMT-6f" transform="translate(2167.041016 0)"/>
     <use xlink:href="#Arial-BoldMT-78" transform="translate(2228.125 0)"/>
     <use xlink:href="#Arial-BoldMT-70" transform="translate(2283.740234 0)"/>
     <use xlink:href="#Arial-BoldMT-6c" transform="translate(2344.824219 0)"/>
     <use xlink:href="#Arial-BoldMT-6f" transform="translate(2372.607422 0)"/>
     <use xlink:href="#Arial-BoldMT-74" transform="translate(2433.691406 0)"/>
     <use xlink:href="#Arial-BoldMT-73" transform="translate(2466.992188 0)"/>
    </g>
    <!-- (Diamante: media | Línea: mediana) -->
    <g transform="translate(538.731016 34.38) scale(0.15 -0.15)">
     <defs>
      <path id="Arial-BoldMT-44" d="M 463 4581 
L 2153 4581 
Q 2725 4581 3025 4494 
Q 3428 4375 3715 4072 
Q 4003 3769 4153 3330 
Q 4303 2891 4303 2247 
Q 4303 1681 4163 1272 
Q 3991 772 3672 463 
Q 3431 228 3022 97 
Q 2716 0 2203 0 
L 463 0 
L 463 4581 
z
M 1388 3806 
L 1388 772 
L 2078 772 
Q 2466 772 2638 816 
Q 2863 872 3011 1006 
Q 3159 1141 3253 1448 
Q 3347 1756 3347 2288 
Q 3347 2819 3253 3103 
Q 3159 3388 2990 3547 
Q 2822 3706 2563 3763 
Q 2369 3806 1803 3806 
L 1388 3806 
z
" transform="scale(0.015625)"/>
      <path id="Arial-BoldMT-3a" d="M 628 2441 
L 628 3319 
L 1506 3319 
L 1506 2441 
L 628 2441 
z
M 628 0 
L 628 878 
L 1506 878 
L 1506 0 
L 628 0 
z
" transform="scale(0.015625)"/>
      <path id="Arial-BoldMT-7c" d="M 550 -1347 
L 550 4659 
L 1247 4659 
L 1247 -1347 
L 550 -1347 
z
" transform="scale(0.015625)"/>
      <path id="Arial-BoldMT-4c" d="M 491 0 
L 491 4544 
L 1416 4544 
L 1416 772 
L 3716 772 
L 3716 0 
L 491 0 
z
" transform="scale(0.015625)"/>
      <path id="Arial-BoldMT-ed" d="M 459 0 
L 459 3319 
L 1338 3319 
L 1338 0 
L 459 0 
z
M 392 3725 
L 824 4659 
L 1808 4659 
L 949 3725 
L 392 3725 
z
" transform="scale(0.015625)"/>
     </defs>
     <use xlink:href="#Arial-BoldMT-28"/>
     <use xlink:href="#Arial-BoldMT-44" transform="translate(33.300781 0)"/>
     <use xlink:href="#Arial-BoldMT-69" transform="translate(105.517578 0)"/>
     <use xlink:href="#Arial-BoldMT-61" transform="translate(133.300781 0)"/>
     <use xlink:href="#Arial-BoldMT-6d" transform="translate(188.916016 0)"/>
     <use xlink:href="#Arial-BoldMT-61" transform="translate(277.832031 0)"/>
     <use xlink:href="#Arial-BoldMT-6e" transform="translate(333.447266 0)"/>
     <use xlink:href="#Arial-BoldMT-74" transform="translate(394.53125 0)"/>
     <use xlink:href="#Arial-BoldMT-65" transform="translate(427.832031 0)"/>
     <use xlink:href="#Arial-BoldMT-3a" transform="translate(483.447266 0)"/>
     <use xlink:href="#Arial-BoldMT-20" transform="translate(516.748047 0)"/>
     <use xlink:href="#Arial-BoldMT-6d" transform="translate(544.53125 0)"/>
     <use xlink:href="#Arial-BoldMT-65" transform="translate(633.447266 0)"/>
     <use xlink:href="#Arial-BoldMT-64" transform="translate(689.0625 0)"/>
     <use xlink:href="#Arial-BoldMT-69" transform="translate(750.146484 0)"/>
     <use xlink:href="#Arial-BoldMT-61" transform="translate(777.929688 0)"/>
     <use xlink:href="#Arial-BoldMT-20" transform="translate(833.544922 0)"/>
     <use xlink:href="#Arial-BoldMT-7c" transform="translate(861.328125 0)"/>
     <use xlink:href="#Arial-BoldMT-20" transform="translate(889.306641 0)"/>
     <use xlink:href="#Arial-BoldMT-4c" transform="translate(917.089844 0)"/>
     <use xlink:href="#Arial-BoldMT-ed" transform="translate(978.173828 0)"/>
     <use xlink:href="#Arial-BoldMT-6e" transform="translate(1005.957031 0)"/>
     <use xlink:href="#Arial-BoldMT-65" transform="translate(1067.041016 0)"/>
     <use xlink:href="#Arial-BoldMT-61" transform="translate(1122.65625 0)"/>
     <use xlink:href="#Arial-BoldMT-3a" transform="translate(1178.271484 0)"/>
     <use xlink:href="#Arial-BoldMT-20" transform="translate(1211.572266 0)"/>
     <use xlink:href="#Arial-BoldMT-6d" transform="translate(1239.355469 0)"/>
     <use xlink:href="#Arial-BoldMT-65" transform="translate(1328.271484 0)"/>
     <use xlink:href="#Arial-BoldMT-64" transform="translate(1383.886719 0)"/>
     <use xlink:href="#Arial-BoldMT-69" transform="translate(1444.970703 0)"/>
     <use xlink:href="#Arial-BoldMT-61" transform="translate(1472.753906 0)"/>
     <use xlink:href="#Arial-BoldMT-6e" transform="translate(1528.369141 0)"/>
     <use xlink:href="#Arial-BoldMT-61" transform="translate(1589.453125 0)"/>
     <use xlink:href="#Arial-BoldMT-29" transform="translate(1645.068359 0)"/>
    </g>
   </g>
  </g>
 </g>
 <defs>
  <clipPath id="pc7bd5861df">
   <rect x="48.020938" y="49.38" width="1233.16" height="606.197983"/>
  </clipPath>
 </defs>
</svg>
